<svg version="1.1" xmlns="http://www.w3.org/2000/svg" xmlns:xlink="http://www.w3.org/1999/xlink" width="543.79279" height="441.92304" viewBox="0,0,543.79279,441.92304"><g transform="translate(55.04504,47.30931)"><g data-paper-data="{&quot;isPaintingLayer&quot;:true}" fill-rule="nonzero" stroke-linejoin="miter" stroke-miterlimit="10" stroke-dasharray="" stroke-dashoffset="0" style="mix-blend-mode: normal"><path d="M-7.74775,381.95211v-403.9039h495.4955v403.9039z" fill="#000000" stroke="#000000" stroke-width="2" stroke-linecap="butt"/><path d="M123.63363,376.11719v-385.88589h229.72973v385.88589z" fill="#368724" stroke="#000000" stroke-width="3.5" stroke-linecap="butt"/><path d="M278.16774,382.95533c0,0 30.48261,-57.53653 30.48261,-99.85018c0,-40.55565 0,-144.33582 0,-219.35295c0,-48.23418 -60.96521,-108.09237 -60.96521,-108.09237l110.07363,23.51515v403.78034z" data-paper-data="{&quot;index&quot;:null}" fill="#6f594d" stroke="#000000" stroke-width="3.5" stroke-linecap="butt"/><path d="M123.36751,386.66465v-403.78034h49.10842c0,0 0,230.10696 0,303.93017c0,42.31365 30.48261,99.85017 30.48261,99.85017z" fill="#6f594d" stroke="#000000" stroke-width="3.5" stroke-linecap="butt"/><path d="M335.15554,369.0967c-4.03352,37.55738 -16.60041,7.39113 -27.07746,15.18339c-10.48162,7.79565 -30.86591,-88.90983 -40.20512,-86.10624c-21.80331,6.54526 -28.19316,-7.49574 -45.11982,5.45194c-8.98058,6.8695 14.31595,62.39075 7.90806,76.5314c-7.10615,15.68153 -34.92796,-3.30329 -34.92796,-3.30329c0,0 -1.38802,-62.61561 -2.26924,-102.3684c-0.02762,-1.24616 -0.05475,-2.46985 -0.08132,-3.66844c-0.10095,-4.55389 -9.32663,-30.48311 -9.69628,-35.12779c-0.80709,-10.14124 6.39796,-24.78544 6.39796,-24.78544c0,0 -5.52291,39.39542 -17.92758,54.1725c-2.91681,3.47465 -6.72516,7.53766 -11.21942,6.41015c-2.2723,-0.57006 -6.60419,-6.23549 -7.25208,-6.30915c-3.52042,-0.40028 4.52573,-9.34195 3.72255,-15.34754c-1.24336,-9.2969 5.91334,-56.45388 4.40752,-64.2076c-1.3787,-7.09915 21.80676,-7.29027 27.28709,-16.9731c5.98436,-10.57339 -1.9848,-26.40688 1.71581,-28.53504c10.67721,-6.14029 31.54201,1.31927 34.07912,0.82655c36.71574,-7.13043 55.32162,27.75193 74.24654,82.19924c3.15851,9.08708 37.77313,129.55515 36.01165,145.95688z" fill="#fdfff2" stroke="#000000" stroke-width="3.5" stroke-linecap="butt"/><path d="M196.92072,34.85748c-3.73345,5.88932 -3.72411,12.35846 -5.97553,14.78412c-6.88333,7.41605 -7.68643,1.1225 -15.85582,6.04891c-7.8138,4.71198 -4.95812,13.36439 -17.70285,13.36439c-3.23422,0 -12.68649,-3.30383 -17.04914,-8.469c-3.18011,-3.7651 -13.80809,-4.10996 -15.20075,-6.094c-7.00856,-9.98465 -3.39423,-16.2467 -3.08528,-34.69239c0.44787,-26.74058 -10.17427,-53.28472 5.72351,-53.28472c8.87318,0 51.27037,0.6494 77.62452,9.79481c8.80895,3.05688 15.8255,14.79924 19.19858,17.45099c9.39927,7.38924 -20.65077,7.35261 -15.63639,15.4998c4.53219,7.36377 -1.85358,14.29823 -0.58535,19.46771c1.20239,4.90114 -10.71534,4.96186 -11.45548,6.12938z" fill="#87ad7e" stroke="#000000" stroke-width="3.5" stroke-linecap="butt"/><path d="M256.45419,94.85333c0,27.77068 -22.26519,50.28326 -49.73069,50.28326c-27.4655,0 -49.7307,-22.51258 -49.7307,-50.28326c0,-27.77067 22.2652,-50.28326 49.7307,-50.28326c27.46551,0 49.7307,22.51258 49.7307,50.28326z" fill="#fdfff2" stroke="#000000" stroke-width="3.5" stroke-linecap="butt"/><path d="M215.67291,117.66687c0.72402,2.95642 -5.45606,7.0103 -13.80361,9.0546c-8.34754,2.0443 -13.75635,4.54679 -14.48037,1.59037c-0.36993,-1.51053 -0.88268,-6.54947 1.72027,-8.21857c2.49157,-1.59768 6.05566,-3.07815 10.13819,-4.07795c8.34754,-2.0443 15.7015,-1.30487 16.42552,1.65155z" fill="none" stroke="#000000" stroke-width="3.5" stroke-linecap="butt"/><path d="M197.58769,119.65448v-24.33351h47.45035v24.33351z" fill="#9c9c9c" stroke="#000000" stroke-width="3.5" stroke-linecap="butt"/><path d="M279.38175,172.16801c3.34199,-21.41003 -20.10347,-28.33096 3.83894,-24.59367c13.87574,2.16593 26.65587,36.60632 43.3,48.49502c6.88103,4.91504 29.52706,35.81007 29.52706,35.81007l-0.84249,30.91446c0,0 -78.57306,-73.01126 -75.82351,-90.62587z" fill="#fdfff2" stroke="#000000" stroke-width="3.5" stroke-linecap="butt"/><g fill="#818181" stroke-linecap="butt"><path d="M161.31944,389.05051c-2.43892,-8.21105 15.60205,-64.99032 37.40353,-113.08885c16.94914,-37.39328 38.68235,-69.53992 38.68235,-69.53992c0,0 9.57926,-11.41623 19.01639,-8.77765c5.43375,1.51925 4.00261,16.85253 4.00261,16.85253c0,0 -41.19466,50.0832 -42.02084,55.48002c-3.36892,22.00673 39.7594,20.71761 44.58762,20.71761c6.87329,0 40.13885,7.1391 38.21832,-14.71461c-0.38033,-4.32776 -39.47317,-60.65462 -39.47317,-60.65462c0,0 -5.74661,-15.93848 0.86861,-17.7594c10.22848,-2.81551 11.1603,2.50825 11.1603,2.50825c0,0 102.09805,166.3112 87.5822,187.87152c-14.61892,21.71339 -43.58616,-55.94806 -54.32426,-69.26918c-7.92272,-9.82851 -35.67806,-2.44418 -43.9728,-2.55548c-8.24811,-0.11068 -37.93287,-0.00857 -43.15914,-0.00857c-6.88514,0 -51.45064,96.91265 -58.57171,72.93836z" stroke="#000000" stroke-width="3.5"/><path d="M239.78344,215.94201v-11.23986l34.6361,2.11596l6.34787,9.1239c0,0 -10.86383,-2.11596 -17.74374,-2.11596c-7.44247,0 -23.24023,2.11596 -23.24023,2.11596z" stroke="none" stroke-width="0"/></g><path d="M243.24096,206.54406l8.46383,-28.52853h18.01802l5.28989,28.52853z" fill="#5a5a5a" stroke="#000000" stroke-width="3.5" stroke-linecap="butt"/><path d="M275.71941,116.48055c0,0 -6.12028,-24.10617 2.11596,-32.79734c5.2056,-5.49314 13.35663,-3.08964 15.86968,2.11596c2.51305,5.2056 -3.17394,30.68139 -3.17394,30.68139z" fill="#9c9c9c" stroke="#000000" stroke-width="3.5" stroke-linecap="butt"/><path d="M297.80782,185.42138c0,6.63405 -16.47001,4.60616 -36.78679,4.60616c-20.31678,0 -36.78679,2.02789 -36.78679,-4.60616c0,-6.63405 -9.23183,-47.24535 0.44713,-53.91783c1.3041,-0.89902 -6.32466,-13.2789 2.65314,-18.79581c11.54165,-7.09241 59.77617,-0.39914 63.08598,-0.13435c11.60616,0.92853 6.69544,20.8825 7.56064,22.93214c4.54421,10.76515 -0.17331,47.23562 -0.17331,49.91585z" fill="#9c9c9c" stroke="#000000" stroke-width="3.5" stroke-linecap="butt"/><path d="M-55.04504,268.10562z" fill="#9c9c9c" stroke="#000000" stroke-width="3.5" stroke-linecap="butt"/><path d="M181.55931,174.66938v-24.33351h56.07288c0,0 -1.21579,19.04362 -6.34787,19.04362c-10.02818,0 -49.72501,5.28989 -49.72501,5.28989z" fill="#9c9c9c" stroke="#000000" stroke-width="3.5" stroke-linecap="butt"/><path d="M221.47261,176.49544v-47.80866l76.17448,5.28989c0,0 5.38718,37.96747 -3.13402,37.96747c-16.65056,0 -73.04046,4.5513 -73.04046,4.5513z" fill="#cbcbcb" stroke="#000000" stroke-width="3.5" stroke-linecap="butt"/><path d="M216.36152,182.77001l-5.67545,-56.72167l18.58347,11.81785l-2.83257,33.59239z" fill="#818181" stroke="#000000" stroke-width="3.5" stroke-linecap="butt"/><path d="M301.06843,183.63268l-82.2775,1.65011l10.61551,-12.96102l62.23701,0.45651z" fill="#818181" stroke="#000000" stroke-width="3.5" stroke-linecap="butt"/><path d="M292.41153,136.92734l-60.12106,-0.60147l-18.02136,-11.90304l87.5674,1.65011z" data-paper-data="{&quot;index&quot;:null}" fill="#818181" stroke="#000000" stroke-width="3.5" stroke-linecap="butt"/><path d="M304.1285,128.12497l-1.04526,53.57517l-9.77424,-9.10207l1.54924,-34.64004z" data-paper-data="{&quot;index&quot;:null}" fill="#818181" stroke="#000000" stroke-width="3.5" stroke-linecap="butt"/><path d="M306.40081,102.19783c0,7.30382 -6.15775,13.22474 -13.75372,13.22474c-7.59597,0 -13.75372,-5.92092 -13.75372,-13.22474c0,-7.30382 6.15775,-13.22474 13.75372,-13.22474c7.59597,0 13.75372,5.92092 13.75372,13.22474z" fill="#5a5a5a" stroke="#000000" stroke-width="3.5" stroke-linecap="butt"/><text transform="translate(201.6609,113.04212) scale(0.43123,0.43123)" font-size="40" xml:space="preserve" fill="#000000" fill-rule="nonzero" stroke="#000000" stroke-width="5" stroke-linecap="butt" stroke-linejoin="miter" stroke-miterlimit="10" stroke-dasharray="" stroke-dashoffset="0" font-family="Handwriting" font-weight="normal" text-anchor="start" style="mix-blend-mode: normal"><tspan x="0" dy="0">4K</tspan></text><path d="M123.63363,380.45063c0,0 0,-20.4894 0,-40.90649c0,-60.82042 0,-362.99741 0,-362.99741h232.73273v403.9039z" fill="none" stroke="#ffffff" stroke-width="2" stroke-linecap="butt"/><g fill="none" stroke="#000000" stroke-width="2" stroke-linecap="round"><path d="M187.62608,193.60993c-0.70095,0.95864 0.55737,5.88286 -0.00534,7.16209c-1.0725,2.43816 -3.06494,2.66755 -3.43041,1.8148c-0.81191,-1.89444 -6.10837,-5.2408 -6.10837,-5.2408"/><path d="M195.1714,191.91125c0,0 1.45388,7.29854 0.52458,9.41116c-1.0725,2.43816 -6.68542,-1.39951 -6.68542,-1.39951"/><path d="M182.46097,186.41161c0,0 6.46012,-1.99754 9.78497,-1.43042c1.69554,0.2892 5.59831,0.72552 6.27451,1.38376c1.70811,1.66277 4.97901,3.03078 4.96099,5.17978c-0.01056,1.25978 2.12056,7.37617 2.06962,9.62395c-0.03289,1.45091 -1.34145,0.22379 -1.61454,0.48995c-0.69617,0.67851 -8.53895,-7.50322 -8.53895,-7.50322"/><path d="M199.92485,199.18985c-0.37351,2.6373 -1.28917,4.14922 -1.87154,3.427c-0.22653,-0.28093 -2.3693,-1.50878 -2.3693,-1.50878"/></g><path d="M230.384,70.47027c0,1.79046 -1.16117,3.24192 -2.59354,3.24192c-1.43237,0 -2.59354,-1.45146 -2.59354,-3.24192c0,-1.79046 1.16117,-3.24192 2.59354,-3.24192c1.43237,0 2.59354,1.45146 2.59354,3.24192z" fill="#000000" stroke="#000000" stroke-width="2" stroke-linecap="butt"/><path d="M182.86492,84.54764c0,1.79046 -1.16117,3.24192 -2.59354,3.24192c-1.43237,0 -2.59354,-1.45146 -2.59354,-3.24192c0,-1.79046 1.16117,-3.24192 2.59354,-3.24192c1.43237,0 2.59354,1.45146 2.59354,3.24192z" fill="#000000" stroke="#000000" stroke-width="2" stroke-linecap="butt"/><path d="M170.01722,79.15984c0,0 2.19404,-5.66187 3.35843,-6.23505c1.26171,-0.62109 4.64823,-3.35094 4.64823,-3.35094" fill="none" stroke="#000000" stroke-width="3.5" stroke-linecap="round"/><path d="M215.1321,52.47924c0,0 4.96154,0.17428 6.34979,0.07512c1.60577,-0.1147 6.60452,3.50588 6.60452,3.50588" fill="none" stroke="#000000" stroke-width="3.5" stroke-linecap="round"/></g></g></svg>