<svg version="1.1" xmlns="http://www.w3.org/2000/svg" xmlns:xlink="http://www.w3.org/1999/xlink" width="497.4955" height="424.20879" viewBox="0,0,497.4955,424.20879"><g transform="translate(8.74775,41.25674)"><g data-paper-data="{&quot;isPaintingLayer&quot;:true}" fill-rule="nonzero" stroke-linejoin="miter" stroke-miterlimit="10" stroke-dasharray="" stroke-dashoffset="0" style="mix-blend-mode: normal"><path d="M-7.74775,381.95205v-403.9039h495.4955v403.9039z" fill="#000000" stroke="#000000" stroke-width="2" stroke-linecap="butt"/><path d="M258.61922,201.3919v-233.98013h81.14918v233.98013z" fill="#a7d69c" stroke="#000000" stroke-width="5" stroke-linecap="butt"/><path d="M200.10165,100.87959v-127.13371h51.39448v127.13371z" fill="#85ab7c" stroke="#000000" stroke-width="5" stroke-linecap="butt"/><path d="M268.30324,-0.29537c4.07063,17.76274 -4.32485,34.84248 -4.32485,34.84248c0,0 -14.99527,-11.71936 -19.0659,-29.4821c-4.07063,-17.76274 -2.13433,-33.36225 4.32485,-34.84248c6.45918,-1.48023 14.99527,11.71936 19.0659,29.4821z" fill="#85ab7c" stroke="#000000" stroke-width="2.5" stroke-linecap="butt"/><path d="M335.87436,286.86336v-313.77682l23.02023,2.10953l0.394,313.91017z" fill="#b9f7ac" stroke="#000000" stroke-width="5" stroke-linecap="butt"/><path d="M126.38643,176.61883l-5.27375,-203.00914l80.34146,-5.27375v208.28289z" fill="#6f5852" stroke="none" stroke-width="0" stroke-linecap="butt"/><path d="M353.28278,331.47933c-21.36479,18.38756 15.02979,2.4844 -50.21958,2.4844c-144.81788,0 -179.42572,-0.27882 -179.42572,-89.98382c0,-51.79618 1.22794,-74.25463 0.24654,-106.17582c-0.46175,-15.01933 1.08405,-54.0001 2.12313,-72.77595c0.53664,-9.69689 -1.58535,-40.40855 -3.08506,-74.44064c-0.66664,-15.12743 -2.11658,-30.09424 4.60885,-30.09424c1.40588,0 5.97085,23.04621 38.4515,40.16445c41.99355,22.13182 40.13589,-13.04335 89.33799,12.64571c28.847,15.06138 -3.98639,58.25429 30.41416,92.75458c14.45255,14.49445 70.26698,9.5481 70.26698,9.5481c0,0 6.12014,208.26606 -2.71878,215.87324z" fill="#42a62a" stroke="#000000" stroke-width="3.5" stroke-linecap="butt"/><path d="M121.39077,369.44504v-127.85762c0,0 20.83402,-7.63358 39.14526,-43.25693c0.42448,-0.82578 -0.32488,21.8897 -0.32488,21.8897l22.10882,-9.4005c0,0 2.64104,30.76774 18.92847,30.76774c45.72614,0 155.21607,0 155.21607,0l0.64325,127.85761z" fill="#87c47e" stroke="#000000" stroke-width="5" stroke-linecap="butt"/><path d="M123.63363,380.45057v-403.9039h232.73273v403.9039z" fill="none" stroke="#ffffff" stroke-width="2" stroke-linecap="butt"/><path d="M211.04946,215.66517c0.27434,0.54784 3.87461,5.72691 6.01833,9.59125c2.14372,3.86434 6.21213,6.65491 5.82933,11.76573c-0.38281,5.11082 -3.25557,8.58434 -7.25137,7.2203c-3.9958,-1.36404 -3.73651,-9.31959 -4.84295,-11.34894c-2.71677,-4.98293 -8.46603,-8.39036 -8.16369,-9.10655" fill="none" stroke="#000000" stroke-width="3.5" stroke-linecap="round"/><path d="M223.65387,86.18084c28.84579,0 54.63734,36.26143 61.58697,42.05778c13.46486,11.23039 21.71857,30.62171 21.71857,30.62171c0,0 -33.76111,-49.49332 -69.48524,-49.49332c-36.62211,0 -94.98709,45.26162 -94.98709,45.26162c0,0 30.37368,-68.44779 81.16679,-68.44779z" data-paper-data="{&quot;index&quot;:null}" fill="#d8276f" stroke="#000000" stroke-width="3.5" stroke-linecap="butt"/><path d="M264.58032,110.54681c-2.05847,2.38262 -6.253,2.13196 -9.36874,-0.55989c-3.11574,-2.69185 -3.97283,-6.80552 -1.91436,-9.18814c2.05847,-2.38262 13.34156,7.36541 11.2831,9.74803z" fill="#f6edf0" stroke="#000000" stroke-width="3.5" stroke-linecap="butt"/><path d="M237.19156,274.2718c4.413,-2.37923 10.97046,1.78038 11.28199,5.05141c0.22102,2.32077 0.56676,5.951 0.56676,5.951" fill="none" stroke="#000000" stroke-width="5" stroke-linecap="round"/><path d="M219.38517,89.42215c0.6336,3.15538 -2.19778,6.38501 -6.32406,7.21357c-4.12628,0.82856 -7.98493,-1.05772 -8.61853,-4.21311c-0.6336,-3.15538 14.30898,-6.15585 14.94258,-3.00046z" fill="#f6edf0" stroke="#000000" stroke-width="3.5" stroke-linecap="butt"/><path d="M142.80236,160.37628c0,-3.77398 67.36007,-48.41533 96.34514,-48.41533c11.12284,0 33.4843,11.88271 47.36332,25.17987c13.78347,13.20562 22.6627,21.44485 22.6627,24.40384c0,12.97869 -42.67046,37.87115 -83.53953,37.87115c-40.86907,0 -82.83162,-26.06083 -82.83162,-39.03952z" data-paper-data="{&quot;index&quot;:null}" fill="#dbcbbb" stroke="#000000" stroke-width="5" stroke-linecap="butt"/><path d="M181.48446,245.69612c0,0 -0.83827,4.15963 -0.89776,2.84074c-0.21801,-4.83326 -22.76175,19.50326 -22.68121,9.64383c0.08278,-10.135 18.96725,-27.79563 23.76528,-45.35331c0.55776,-2.04103 -1.32194,-1.39078 -1.44917,-1.46363c-0.55502,-0.31783 -4.30724,13.01325 -4.02674,11.99488c2.45599,-8.91663 0.19469,-50.4829 2.24923,-51.68844c11.62201,-6.81945 20.32841,-18.42757 35.2449,-16.69949c16.02358,1.85634 26.97684,2.66981 40.10852,9.79211c0.4733,0.2567 19.37144,45.3878 21.35787,66.98515c0.18228,1.98183 -2.03899,-16.35881 -1.93897,-14.33086c0.03871,0.78486 4.98726,8.30586 8.37857,15.88079c2.73597,6.11116 2.73719,12.96161 3.94321,19.25917c0.33637,1.75646 -3.51498,9.42721 -7.6339,8.26302c-3.93814,-1.11309 -7.13077,-11.03974 -7.15738,-10.49033c-0.12704,2.62334 -0.89441,-12.79417 -1.41542,-7.96253c-0.4148,3.84668 3.27175,12.4312 1.60602,22.63903c-2.91293,17.85093 -13.28447,37.08945 -14.2952,39.69336c-2.61615,6.73994 -5.8607,11.36083 -8.70292,12.73885c-4.99033,2.41951 -15.75808,-23.63538 -16.90146,-23.29903c-4.46761,1.31423 13.25239,-3.96488 5.23459,-2.12785c-9.74603,2.233 -19.22688,1.97662 -26.89946,6.1189c-11.11465,6.00058 -4.35508,19.94774 -13.97382,23.35201c-5.95915,2.10906 -5.12228,-3.08306 -9.43303,-2.71782c-4.48499,0.38 -3.87569,-22.6454 -4.58232,-23.22044c0,0 11.53869,-27.3079 11.08367,-31.55389z" data-paper-data="{&quot;index&quot;:null}" fill="#f2ebe5" stroke="#000000" stroke-width="5" stroke-linecap="butt"/><path d="M164.7458,163.16127l13,6" fill="none" stroke="#ab9d83" stroke-width="2" stroke-linecap="round"/><path d="M271.28789,171.96919l17,-5" fill="none" stroke="#ab9d83" stroke-width="2" stroke-linecap="round"/><path d="M237.35657,149.26904l7.78696,-23.36088" data-paper-data="{&quot;index&quot;:null}" fill="none" stroke="#ab9d83" stroke-width="2" stroke-linecap="round"/><path d="" fill="#000000" stroke="#000000" stroke-width="5" stroke-linecap="butt"/><path d="M249.22382,214.90985c0,3.40176 -7.4851,1.63487 -16.71845,1.63487c-9.23334,0 -16.71845,1.76689 -16.71845,-1.63487c0,-3.40176 4.68527,-9.65922 13.91862,-9.65922c9.23334,0 19.51828,6.25746 19.51828,9.65922z" fill="none" stroke="#000000" stroke-width="2.5" stroke-linecap="butt"/><path d="M253.18771,176.49797c0.25111,1.36297 -1.48631,11.55346 -2.59292,12.92899c-2.59742,3.22864 -11.54854,-10.32361 -18.74665,-8.99744c-4.24899,0.78282 -6.76514,12.62873 -12.00947,14.92244c-3.32735,1.45528 -4.97464,-8.97776 -11.7419,-10.65974c-2.28916,-0.56896 -12.06642,0.35353 -15.78016,5.09151c-3.18809,4.06735 2.52797,11.43989 -0.66616,12.18125c-6.63115,1.5391 -12.10261,-16.93963 -5.19977,-19.26932c13.66972,-4.6135 39.80847,-9.77729 46.62906,-11.0339c4.5756,-0.843 11.65391,-1.38729 15.1168,-0.76526c4.30567,0.77342 4.52532,3.07296 4.99117,5.60149z" fill="#000000" stroke="#000000" stroke-width="2.5" stroke-linecap="butt"/><path d="M220.93932,190.16053l-9.11115,-11.88682l2.18483,-1.16086l8.22243,12.77554z" fill="#fff8f2" stroke="none" stroke-width="0" stroke-linecap="butt"/><path d="M247.40915,187.44541l-7.25786,-10.51257l1.8122,-1.45157c0,0 1.91808,4.23747 3.37471,6.06923c1.20494,1.51525 4.75408,4.15303 4.75408,4.15303z" fill="#fff8f2" stroke="none" stroke-width="0" stroke-linecap="butt"/></g></g></svg>