<svg version="1.1" xmlns="http://www.w3.org/2000/svg" xmlns:xlink="http://www.w3.org/1999/xlink" width="497.4955" height="422.52604" viewBox="0,0,497.4955,422.52604"><g transform="translate(8.74775,39.57404)"><g data-paper-data="{&quot;isPaintingLayer&quot;:true}" fill-rule="nonzero" stroke-linejoin="miter" stroke-miterlimit="10" stroke-dasharray="" stroke-dashoffset="0" style="mix-blend-mode: normal"><path d="M-7.74775,381.95201v-403.9039h495.4955v403.9039z" fill="#000000" stroke="#000000" stroke-width="2" stroke-linecap="butt"/><path d="M240.67624,196.9061v-233.98013h81.14918v233.98013z" fill="#a7d69c" stroke="#000000" stroke-width="5" stroke-linecap="butt"/><path d="M237.3983,53.41355v-75.99084h93.98867v75.99084c0,0 -18.61837,13.33246 -31.49268,3.93888c-7.58921,-5.53737 -9.26783,-35.93502 -14.50178,-35.93502c-7.56804,0 0.06369,30.54735 -16.19962,39.67763c-16.26331,9.13028 -31.79459,-7.68149 -31.79459,-7.68149z" fill="#70432e" stroke="#000000" stroke-width="5" stroke-linecap="butt"/><path d="M200.10165,100.87956v-127.13371h51.39448v127.13371z" fill="#85ab7c" stroke="#000000" stroke-width="5" stroke-linecap="butt"/><path d="M305.59558,290.22765v-313.77682c0,0 52.17758,0.12858 52.17758,5.47384c0,30.36805 2.63688,308.30298 2.63688,308.30298z" fill="#b9f7ac" stroke="#000000" stroke-width="5" stroke-linecap="butt"/><path d="M126.38643,176.61879l-5.27375,-203.00914l80.34146,-5.27375v208.28289z" fill="#6f5852" stroke="none" stroke-width="0" stroke-linecap="butt"/><path d="M312.35802,205.69726c0,11.74502 14.25093,-0.75924 14.60355,8.4923c0.27019,7.08898 16.47283,9.71102 22.6971,21.59272c7.36676,14.06263 4.55037,37.30166 -1.08004,42.14745c-13.60941,11.71291 -69.71963,12.29792 -111.2836,12.29792c-92.24926,0 -114.29452,-0.17761 -114.29452,-57.31986c0,-32.99426 0.7822,-47.30034 0.15705,-67.6342c-0.29414,-9.56734 0.69054,-34.39816 1.35244,-46.35841c0.34184,-6.17694 -1.00987,-25.74032 -1.96519,-47.41883c-0.42465,-9.6362 -2.06262,-19.17009 2.22149,-19.17009c0.89555,0 4.5178,14.68048 25.20803,25.58483c26.74997,14.09801 25.56663,-8.30864 56.90846,8.05534c18.37559,9.59413 -2.53934,37.10809 19.37388,59.08484c9.2063,9.23299 30.33356,0.15115 46.90327,6.08216c16.07776,5.75492 12.56425,30.97081 23.67499,39.435c10.28441,7.83468 15.52309,11.16478 15.52309,15.12883z" fill="#42a62a" stroke="#000000" stroke-width="3.5" stroke-linecap="butt"/><path d="M123.63364,362.71636v-93.09309c0,0 15.16924,-5.55801 28.50165,-31.49536c0.30906,-0.60125 -0.23655,15.93789 -0.23655,15.93789l16.09743,-6.8445c0,0 1.92294,22.40198 13.78181,22.40198c33.29319,0 77.574,0 113.01277,0c19.54677,0 12.04234,-22.23202 12.04234,-22.23202c0,0 3.7352,16.22191 10.708,9.85038c2.81042,-2.56808 10.2939,-17.90037 10.2939,-17.90037c0,0 2.4852,9.25501 8.15761,14.10545c4.71795,4.03429 17.52858,-13.36101 17.52858,-13.36101c0,0 -8.87696,18.00281 -6.50113,24.71273c3.1321,8.84584 7.84482,4.82483 7.84482,4.82483v93.09309z" fill="#87c47e" stroke="#000000" stroke-width="5" stroke-linecap="butt"/><path d="M133.6086,251.72725l6.48434,16.67401" fill="none" stroke="#b8ecb0" stroke-width="5" stroke-linecap="round"/><path d="M134.53493,269.32757l-9.26334,-20.37935" fill="none" stroke="#b8ecb0" stroke-width="5" stroke-linecap="round"/><path d="M127.96365,348.1353l1.85267,-10.18968" fill="none" stroke="#b8ecb0" stroke-width="10" stroke-linecap="round"/><path d="M135.95994,349.98797l-1.85267,8.33701" fill="none" stroke="#b8ecb0" stroke-width="10" stroke-linecap="round"/><path d="M295.28941,333.31392l-4.63167,-12.96868" fill="none" stroke="#b8ecb0" stroke-width="5" stroke-linecap="round"/><path d="M296.21575,311.08189l9.26334,20.37935" fill="none" stroke="#b8ecb0" stroke-width="5" stroke-linecap="round"/><path d="M123.63363,380.45051v-403.9039h232.73273v403.9039z" fill="none" stroke="#ffffff" stroke-width="2" stroke-linecap="butt"/><path d="M261.80622,312.41682c-9.1882,6.2781 -12.78055,-28.60938 -12.78055,-28.60938c0,0 2.96756,11.84208 -5.90915,13.31903c-5.19576,0.86449 -9.8897,-8.71644 -17.91639,-9.45469c-7.00099,-0.64392 -38.43711,-13.75141 -39.82709,-26.722c-2.46927,-23.04193 -10.85847,-47.69374 13.24812,-61.83877c24.10659,-14.14503 49.82122,-13.26561 75.17732,0.48691c9.41852,5.10837 0.93563,13.38586 -0.44751,21.93514c-2.34049,14.4667 -3.63324,29.71165 -3.70992,31.69649c-0.37129,9.6116 -0.07068,8.26303 -0.94249,16.80669c-0.59103,5.79201 2.29586,36.10247 -6.89234,42.38056z" data-paper-data="{&quot;index&quot;:null}" fill="#f2ebe5" stroke="#000000" stroke-width="5" stroke-linecap="butt"/><path d="M275.591,204.56136c-0.19595,0.58052 -1.33961,6.78347 -2.57493,11.02643c-1.23533,4.24296 -0.35308,9.09691 -4.25232,12.42301c-3.89923,3.32611 -8.38857,3.73117 -10.23282,-0.06696c-1.84424,-3.79813 3.98837,-9.21461 4.65071,-11.42906c1.62635,-5.43742 -0.00111,-11.91939 0.72038,-12.20885" fill="none" stroke="#000000" stroke-width="3.5" stroke-linecap="round"/><path d="M225.38899,221.75349c-0.3791,0.48133 -3.53468,5.94274 -6.12002,9.52669c-2.58534,3.58395 -3.38016,8.45298 -8.16834,10.28065c-4.78818,1.82766 -9.1538,0.70539 -9.61911,-3.4911c-0.46531,-4.19649 6.84483,-7.34606 8.21074,-9.21067c3.35391,-4.5784 3.99197,-11.23103 4.76874,-11.26207" fill="none" stroke="#000000" stroke-width="3.5" stroke-linecap="round"/><path d="M321.82542,177.21277c0,17.5535 -41.17595,31.78343 -91.96907,31.78343c-50.79311,0 -72.50326,-9.99823 -72.50326,-27.55173c0,-5.0027 8.25371,-19.39132 21.71857,-30.62171c6.94963,-5.79635 29.40309,-9.60291 33.77058,-11.46294c16.86202,-7.18122 31.9706,-17.59484 60.81639,-17.59484c50.79311,0 48.16679,37.89429 48.16679,55.44779z" data-paper-data="{&quot;index&quot;:null}" fill="#d8276f" stroke="#000000" stroke-width="3.5" stroke-linecap="butt"/><path d="M304.30133,183.92237c0,4.85522 -5.14699,8.79116 -11.49613,8.79116c-6.34914,0 -11.49613,-3.93594 -11.49613,-8.79116c0,-4.85522 5.14699,-8.79116 11.49613,-8.79116c6.34914,0 11.49613,3.93594 11.49613,8.79116z" fill="#f6edf0" stroke="#000000" stroke-width="3.5" stroke-linecap="butt"/><path d="M251.65546,148.43113c0,4.85522 -5.14699,8.79116 -11.49613,8.79116c-6.34914,0 -11.49614,-3.93594 -11.49614,-8.79116c0,-4.85523 5.147,-8.79117 11.49614,-8.79117c6.34914,0 11.49613,3.93594 11.49613,8.79117z" fill="#f6edf0" stroke="#000000" stroke-width="3.5" stroke-linecap="butt"/><path d="M268.30324,-0.2954c4.07063,17.76274 -4.32485,34.84248 -4.32485,34.84248c0,0 -14.99527,-11.71936 -19.0659,-29.4821c-4.07063,-17.76274 -2.13433,-33.36225 4.32485,-34.84248c6.45918,-1.48023 14.99527,11.71936 19.0659,29.4821z" fill="#85ab7c" stroke="#000000" stroke-width="5" stroke-linecap="butt"/><path d="M237.19156,274.2718c4.413,-2.37923 10.97046,1.78038 11.28199,5.05141c0.22102,2.32077 0.56676,5.951 0.56676,5.951" fill="none" stroke="#000000" stroke-width="5" stroke-linecap="round"/></g></g></svg>