<svg version="1.1" xmlns="http://www.w3.org/2000/svg" xmlns:xlink="http://www.w3.org/1999/xlink" width="497.4955" height="422.52602" viewBox="0,0,497.4955,422.52602"><g transform="translate(8.74775,39.57397)"><g data-paper-data="{&quot;isPaintingLayer&quot;:true}" fill-rule="nonzero" stroke-linejoin="miter" stroke-miterlimit="10" stroke-dasharray="" stroke-dashoffset="0" style="mix-blend-mode: normal"><path d="M-7.74775,381.95205v-403.9039h495.4955v403.9039z" fill="#000000" stroke="#000000" stroke-width="2" stroke-linecap="butt"/><path d="M240.67624,196.90616v-233.98013h81.14918v233.98013z" fill="#a7d69c" stroke="#000000" stroke-width="5" stroke-linecap="butt"/><path d="M237.3983,53.4136v-75.99084h93.98867v75.99084c0,0 -18.61837,13.33246 -31.49268,3.93888c-7.58921,-5.53737 -9.26783,-35.93502 -14.50178,-35.93502c-7.56804,0 0.06369,30.54735 -16.19962,39.67763c-16.26331,9.13028 -31.79459,-7.68149 -31.79459,-7.68149z" fill="#70432e" stroke="#000000" stroke-width="5" stroke-linecap="butt"/><path d="M200.10165,100.87959v-127.13371h51.39448v127.13371z" fill="#85ab7c" stroke="#000000" stroke-width="5" stroke-linecap="butt"/><path d="M305.59558,290.22767v-313.77682c0,0 52.17758,0.12858 52.17758,5.47384c0,30.36805 2.63688,308.30298 2.63688,308.30298z" fill="#b9f7ac" stroke="#000000" stroke-width="5" stroke-linecap="butt"/><path d="M126.38643,176.61883l-5.27375,-203.00914l80.34146,-5.27375v208.28289z" fill="#6f5852" stroke="none" stroke-width="0" stroke-linecap="butt"/><path d="M312.35802,205.69732c0,11.74502 14.25093,-0.75924 14.60355,8.4923c0.27019,7.08898 16.47283,9.71102 22.6971,21.59272c7.36676,14.06263 4.55037,37.30166 -1.08004,42.14745c-13.60941,11.71291 -69.71963,12.29792 -111.2836,12.29792c-92.24926,0 -114.29452,-0.17761 -114.29452,-57.31986c0,-32.99426 0.7822,-47.30034 0.15705,-67.6342c-0.29414,-9.56734 0.69054,-34.39816 1.35244,-46.35841c0.34184,-6.17694 -1.00987,-25.74032 -1.96519,-47.41883c-0.42465,-9.6362 -2.06262,-19.17009 2.22149,-19.17009c0.89555,0 4.5178,14.68048 25.20803,25.58483c26.74997,14.09801 25.56663,-8.30864 56.90846,8.05534c18.37559,9.59413 -2.53934,37.10809 19.37388,59.08484c9.2063,9.23299 30.33356,0.15115 46.90327,6.08216c16.07776,5.75492 12.56425,30.97081 23.67499,39.435c10.28441,7.83468 15.52309,11.16478 15.52309,15.12883z" fill="#42a62a" stroke="#000000" stroke-width="3.5" stroke-linecap="butt"/><path d="M123.63364,362.71642v-93.09309c0,0 15.16924,-5.55801 28.50165,-31.49536c0.30906,-0.60125 -0.23655,15.93789 -0.23655,15.93789l16.09743,-6.8445c0,0 1.92294,22.40198 13.78181,22.40198c33.29319,0 77.574,0 113.01277,0c19.54677,0 12.04234,-22.23202 12.04234,-22.23202c0,0 3.7352,16.22191 10.708,9.85038c2.81042,-2.56808 10.2939,-17.90037 10.2939,-17.90037c0,0 2.4852,9.25501 8.15761,14.10545c4.71795,4.03429 17.52858,-13.36101 17.52858,-13.36101c0,0 -8.87696,18.00281 -6.50113,24.71273c3.1321,8.84584 7.84482,4.82483 7.84482,4.82483v93.09309z" fill="#87c47e" stroke="#000000" stroke-width="5" stroke-linecap="butt"/><path d="M133.6086,251.72727l6.48434,16.67401" fill="none" stroke="#b8ecb0" stroke-width="5" stroke-linecap="round"/><path d="M134.53493,269.32759l-9.26334,-20.37935" fill="none" stroke="#b8ecb0" stroke-width="5" stroke-linecap="round"/><path d="M127.96365,348.13536l1.85267,-10.18968" fill="none" stroke="#b8ecb0" stroke-width="10" stroke-linecap="round"/><path d="M134.10727,358.32503l1.85267,-8.33701" fill="none" stroke="#b8ecb0" stroke-width="10" stroke-linecap="round"/><path d="M290.65774,320.34524l4.63167,12.96868" fill="none" stroke="#b8ecb0" stroke-width="5" stroke-linecap="round"/><path d="M296.21575,311.08191l9.26334,20.37935" fill="none" stroke="#b8ecb0" stroke-width="5" stroke-linecap="round"/><path d="M123.63363,380.45057v-403.9039h232.73273v403.9039z" fill="none" stroke="#ffffff" stroke-width="2" stroke-linecap="butt"/><path d="M211.04946,215.66517c0.27434,0.54784 3.87461,5.72691 6.01833,9.59125c2.14372,3.86434 6.21213,6.65491 5.82933,11.76573c-0.38281,5.11082 -3.25557,8.58434 -7.25137,7.2203c-3.9958,-1.36404 -3.73651,-9.31959 -4.84295,-11.34894c-2.71677,-4.98293 -8.46603,-8.39036 -8.16369,-9.10655" fill="none" stroke="#000000" stroke-width="3.5" stroke-linecap="round"/><path d="M306.95941,154.62863c0,0 -58.36498,-45.26162 -94.98709,-45.26162c-35.72413,0 -69.48524,49.49332 -69.48524,49.49332c0,0 8.25371,-19.39132 21.71857,-30.62171c6.94963,-5.79635 32.74118,-42.05778 61.58697,-42.05778c50.79311,0 81.16679,68.44779 81.16679,68.44779z" data-paper-data="{&quot;index&quot;:null}" fill="#d8276f" stroke="#000000" stroke-width="3.5" stroke-linecap="butt"/><path d="M272.68831,110.04006c-2.05847,2.38262 -6.253,2.13196 -9.36874,-0.55989c-3.11574,-2.69185 -3.97283,-6.80552 -1.91436,-9.18814c2.05847,-2.38262 13.34156,7.36541 11.2831,9.74803z" fill="#f6edf0" stroke="#000000" stroke-width="3.5" stroke-linecap="butt"/><path d="M268.30324,-0.29537c4.07063,17.76274 -4.32485,34.84248 -4.32485,34.84248c0,0 -14.99527,-11.71936 -19.0659,-29.4821c-4.07063,-17.76274 -2.13433,-33.36225 4.32485,-34.84248c6.45918,-1.48023 14.99527,11.71936 19.0659,29.4821z" fill="#85ab7c" stroke="#000000" stroke-width="5" stroke-linecap="butt"/><path d="M237.19156,274.2718c4.413,-2.37923 10.97046,1.78038 11.28199,5.05141c0.22102,2.32077 0.56676,5.951 0.56676,5.951" fill="none" stroke="#000000" stroke-width="5" stroke-linecap="round"/><path d="M230.91541,88.46837c0.17274,3.21373 -3.09409,6.0021 -7.29667,6.228c-4.20258,0.2259 -7.74948,-2.19624 -7.92222,-5.40997c-0.17274,-3.21373 15.04614,-4.03176 15.21888,-0.81803z" fill="#f6edf0" stroke="#000000" stroke-width="3.5" stroke-linecap="butt"/><path d="M309.17351,160.37629c0,12.97869 -41.96255,39.03952 -82.83162,39.03952c-40.86907,0 -83.53953,-24.89246 -83.53953,-37.87115c0,-2.95899 8.87923,-11.19822 22.6627,-24.40384c13.87902,-13.29716 36.24048,-25.17987 47.36332,-25.17987c28.98507,0 96.34514,44.64135 96.34514,48.41533z" fill="#dbcbbb" stroke="#000000" stroke-width="5" stroke-linecap="butt"/><path d="M228.16828,323.2044c-1.82081,0.15584 -1.78701,4.30559 -7.00205,0.42516c-6.9931,-5.20346 -23.51572,-18.80789 -28.12908,-22.56213c-10.0221,-8.15573 -7.20909,-35.87162 -7.66411,-40.11761c-0.51878,-4.84093 2.64401,-23.36169 2.64401,-23.36169c0,0 -14.58307,-9.52126 -15.35144,-16.00412c-2.7319,-23.04951 4.59874,-45.24728 19.46068,-53.96782c11.62201,-6.81945 17.79466,-13.36008 32.71115,-11.632c16.02358,1.85634 25.96334,8.24405 39.09502,15.36635c0.51673,0.28026 -2.16343,27.61807 -0.9734,51.74593c1.13504,23.01298 6.16508,42.76902 5.73949,46.93982c-0.01884,0.18461 2.78042,9.86375 -1.37889,14.77986c-3.63895,4.30108 -13.96537,3.98411 -18.14879,3.34234c-7.70582,-1.18214 -14.6741,4.6838 -15.95847,4.84185c-7.59676,0.93482 -2.23725,10.66031 -2.97169,10.72317c-8.00052,0.68478 2.18997,19.11608 -2.07244,19.4809z" data-paper-data="{&quot;index&quot;:null}" fill="#f2ebe5" stroke="#000000" stroke-width="5" stroke-linecap="butt"/><path d="M163.63399,167.00003l13,6" fill="none" stroke="#ab9d83" stroke-width="2" stroke-linecap="round"/><path d="M275.34189,165.38145l17,-5" fill="none" stroke="#ab9d83" stroke-width="2" stroke-linecap="round"/><path d="M204.00432,185.87961c0,0 -4.19971,2.75 -6.125,2.75c-1.71763,0 -4.875,-2.75 -4.875,-2.75" data-paper-data="{&quot;index&quot;:null}" fill="none" stroke="#000000" stroke-width="3.5" stroke-linecap="round"/><path d="M238.73402,188.14559c-2.68857,1.23236 -8.24749,2.64073 -13.60759,-1.18803" fill="none" stroke="#000000" stroke-width="3.5" stroke-linecap="round"/><path d="M208.35812,199.45859c1.78457,-1.92727 8.71317,-1.36965 9.5,-0.5" data-paper-data="{&quot;index&quot;:null}" fill="none" stroke="#000000" stroke-width="2" stroke-linecap="round"/><path d="M183.92931,217.12299c-0.66254,-0.05372 2.15768,5.05201 5.42087,7.9541c4.10639,3.65198 8.91425,5.50753 8.36602,8.26026c-0.4481,2.24998 -1.43902,5.65189 -3.26669,5.24204c-3.37649,-0.75717 -8.57953,-3.15579 -12.69315,-6.67755c-4.67237,-4.00011 -8.05949,-9.2087 -7.93218,-10.77885" fill="none" stroke="#000000" stroke-width="3.5" stroke-linecap="round"/><path d="M219.48912,148.76229l-7.78696,-23.36088" fill="none" stroke="#ab9d83" stroke-width="2" stroke-linecap="round"/><path d="M237.42434,214.66222c-0.66254,-0.05372 5.47358,3.80855 8.73677,6.71064c4.10639,3.65198 8.91425,5.50754 8.36603,8.26026c-0.4481,2.24998 -1.43902,5.65189 -3.26669,5.24204c-3.37649,-0.75717 -8.57953,-3.15579 -12.69314,-6.67755c-4.67237,-4.00011 -5.98705,-4.64934 -5.85975,-6.21949" fill="none" stroke="#000000" stroke-width="3.5" stroke-linecap="round"/><path d="M227.27006,310.51847c0,0 -10.36591,-12.26398 -10.5739,-18.15683c-0.0938,-2.65747 2.4212,-6.42351 5.19443,-9.74279c3.33229,-3.98843 12.42576,-7.7463 12.42576,-7.7463" fill="none" stroke="#000000" stroke-width="5" stroke-linecap="round"/></g></g></svg>