<svg version="1.1" xmlns="http://www.w3.org/2000/svg" xmlns:xlink="http://www.w3.org/1999/xlink" width="543.79279" height="441.92304" viewBox="0,0,543.79279,441.92304"><g transform="translate(55.04504,47.30934)"><g data-paper-data="{&quot;isPaintingLayer&quot;:true}" fill-rule="nonzero" stroke-linejoin="miter" stroke-miterlimit="10" stroke-dasharray="" stroke-dashoffset="0" style="mix-blend-mode: normal"><path d="M-7.74775,381.95209v-403.9039h495.4955v403.9039z" fill="#000000" stroke="#000000" stroke-width="2" stroke-linecap="butt"/><path d="M123.63363,376.11717v-385.88589h229.72973v385.88589z" fill="#368724" stroke="#000000" stroke-width="3.5" stroke-linecap="butt"/><path d="M123.36751,386.66463v-403.78034h49.10842c0,0 0,230.10696 0,303.93017c0,42.31365 30.48261,99.85017 30.48261,99.85017z" fill="#6f594d" stroke="#000000" stroke-width="3.5" stroke-linecap="butt"/><path d="M169.34554,170.86176c-4.77754,22.80889 -8.79597,41.95893 3.80894,44.59915c12.60491,2.64022 11.89077,-13.70972 16.66831,-36.51861c4.77754,-22.80889 19.15975,-34.55623 6.55484,-37.19645c-2.39298,-0.50124 -15.75682,-4.15278 -17.88044,-3.58705c-9.06241,2.41422 -5.28111,14.22423 -9.15166,32.70296z" fill="#fdfff2" stroke="#000000" stroke-width="3.5" stroke-linecap="butt"/><path d="M275.01733,104.97867c0,27.77068 -22.26519,50.28326 -49.73069,50.28326c-27.4655,0 -49.7307,-22.51258 -49.7307,-50.28326c0,-27.77067 22.2652,-50.28326 49.7307,-50.28326c27.46551,0 49.7307,22.51258 49.7307,50.28326z" fill="#fdfff2" stroke="#000000" stroke-width="3.5" stroke-linecap="butt"/><path d="M197.58769,119.65446v-24.33351h47.45035v24.33351z" fill="#9c9c9c" stroke="#000000" stroke-width="3.5" stroke-linecap="butt"/><path d="M278.16774,382.95531c0,0 30.48261,-57.53653 30.48261,-99.85018c0,-40.55565 0,-144.33582 0,-219.35295c0,-48.23418 -60.96521,-108.09237 -60.96521,-108.09237l110.07363,23.51515v403.78034z" data-paper-data="{&quot;index&quot;:null}" fill="#6f594d" stroke="#000000" stroke-width="3.5" stroke-linecap="butt"/><path d="M196.92072,34.85748c-3.73345,5.88932 -3.72411,12.35846 -5.97553,14.78412c-6.88333,7.41605 -7.68643,1.1225 -15.85582,6.04891c-7.8138,4.71198 -4.95812,13.36439 -17.70285,13.36439c-3.23422,0 -12.68649,-3.30383 -17.04914,-8.469c-3.18011,-3.7651 -13.80809,-4.10996 -15.20075,-6.094c-7.00856,-9.98465 -3.39423,-16.2467 -3.08528,-34.69239c0.44787,-26.74058 -10.17427,-53.28472 5.72351,-53.28472c8.87318,0 51.27037,0.6494 77.62452,9.79481c8.80895,3.05688 15.8255,14.79924 19.19858,17.45099c9.39927,7.38924 -20.65077,7.35261 -15.63639,15.4998c4.53219,7.36377 -1.85358,14.29823 -0.58535,19.46771c1.20239,4.90114 -10.71534,4.96186 -11.45548,6.12938z" fill="#87ad7e" stroke="#000000" stroke-width="3.5" stroke-linecap="butt"/><path d="M350.34357,368.2529c-4.03352,37.55738 -16.60041,7.39113 -27.07746,15.18339c-10.48162,7.79565 -30.86591,-88.90983 -40.20512,-86.10624c-21.80331,6.54526 -28.19316,-7.49574 -45.11982,5.45194c-8.98058,6.8695 14.31595,62.39075 7.90806,76.5314c-7.10615,15.68153 -34.92796,-3.30329 -34.92796,-3.30329l-3.11754,-140.63669c0,0 -27.69068,-19.98676 -32.48792,-44.68857c-0.46831,-2.4114 20.86978,-50.99182 62.23824,-59.02584c36.71574,-7.13043 57.85296,36.18972 76.77788,90.63703c3.15851,9.08708 37.77313,129.55515 36.01165,145.95688z" fill="#fdfff2" stroke="#000000" stroke-width="3.5" stroke-linecap="butt"/><path d="M287.61534,172.17995c0,-21.6693 -24.23234,-24.89149 0,-24.89149c14.04377,0 31.98263,32.05728 50.26118,41.23676c7.55673,3.79499 18.49478,14.56883 18.49478,14.56883c0,0 -0.40983,5.66827 -0.40983,9.58731c0,3.84139 1.99152,26.47878 -1.67353,26.29669c-17.00954,-0.84507 -66.6726,-48.97019 -66.6726,-66.7981z" fill="#fdfff2" stroke="#000000" stroke-width="3.5" stroke-linecap="butt"/><g fill="#818181" stroke-linecap="butt"><path d="M161.31944,389.05049c-2.43892,-8.21105 15.60205,-64.99032 37.40353,-113.08885c16.94914,-37.39328 38.68235,-69.53992 38.68235,-69.53992c0,0 9.57926,-11.41623 19.01639,-8.77765c5.43375,1.51925 4.00261,16.85253 4.00261,16.85253c0,0 -41.19466,50.0832 -42.02084,55.48002c-3.36892,22.00673 39.7594,20.71761 44.58762,20.71761c6.87329,0 40.13885,7.1391 38.21832,-14.71461c-0.38033,-4.32776 -39.47317,-60.65462 -39.47317,-60.65462c0,0 -5.74661,-15.93848 0.86861,-17.7594c10.22848,-2.81551 11.1603,2.50825 11.1603,2.50825c0,0 102.09805,166.3112 87.5822,187.87152c-14.61892,21.71339 -43.58616,-55.94806 -54.32426,-69.26918c-7.92272,-9.82851 -35.67806,-2.44418 -43.9728,-2.55548c-8.24811,-0.11068 -37.93287,-0.00857 -43.15914,-0.00857c-6.88514,0 -51.45064,96.91265 -58.57171,72.93836z" stroke="#000000" stroke-width="3.5"/><path d="M239.78344,215.94199v-11.23986l34.6361,2.11596l6.34787,9.1239c0,0 -10.86383,-2.11596 -17.74374,-2.11596c-7.44247,0 -23.24023,2.11596 -23.24023,2.11596z" stroke="none" stroke-width="0"/></g><path d="M243.24096,206.54404l8.46383,-28.52853h18.01802l5.28989,28.52853z" fill="#5a5a5a" stroke="#000000" stroke-width="3.5" stroke-linecap="butt"/><path d="M275.71941,116.48053c0,0 -6.12028,-24.10617 2.11596,-32.79734c5.2056,-5.49314 13.35663,-3.08964 15.86968,2.11596c2.51305,5.2056 -3.17394,30.68139 -3.17394,30.68139z" fill="#9c9c9c" stroke="#000000" stroke-width="3.5" stroke-linecap="butt"/><path d="M297.80782,185.42136c0,6.63405 -16.47001,4.60616 -36.78679,4.60616c-20.31678,0 -36.78679,2.02789 -36.78679,-4.60616c0,-6.63405 -9.23183,-47.24535 0.44713,-53.91783c1.3041,-0.89902 -6.32466,-13.2789 2.65314,-18.79581c11.54165,-7.09241 59.77617,-0.39914 63.08598,-0.13435c11.60616,0.92853 6.69544,20.8825 7.56064,22.93214c4.54421,10.76515 -0.17331,47.23562 -0.17331,49.91585z" fill="#9c9c9c" stroke="#000000" stroke-width="3.5" stroke-linecap="butt"/><path d="M-55.04504,268.1056v0v0z" fill="#9c9c9c" stroke="#000000" stroke-width="3.5" stroke-linecap="butt"/><path d="M181.55931,174.66936v-24.33351h56.07288c0,0 -1.21579,19.04362 -6.34787,19.04362c-10.02818,0 -49.72501,5.28989 -49.72501,5.28989z" fill="#9c9c9c" stroke="#000000" stroke-width="3.5" stroke-linecap="butt"/><path d="M221.47261,176.49542v-47.80866l76.17448,5.28989c0,0 5.38718,37.96747 -3.13402,37.96747c-16.65056,0 -73.04046,4.5513 -73.04046,4.5513z" fill="#cbcbcb" stroke="#000000" stroke-width="3.5" stroke-linecap="butt"/><path d="M216.36152,182.76999l-5.67545,-56.72167l18.58347,11.81785l-2.83257,33.59239z" fill="#818181" stroke="#000000" stroke-width="3.5" stroke-linecap="butt"/><path d="M301.06843,183.63266l-82.2775,1.65011l10.61551,-12.96102l62.23701,0.45651z" fill="#818181" stroke="#000000" stroke-width="3.5" stroke-linecap="butt"/><path d="M292.41153,136.92732l-60.12106,-0.60147l-18.02136,-11.90304l87.5674,1.65011z" data-paper-data="{&quot;index&quot;:null}" fill="#818181" stroke="#000000" stroke-width="3.5" stroke-linecap="butt"/><path d="M304.1285,128.12495l-1.04526,53.57517l-9.77424,-9.10207l1.54924,-34.64004z" data-paper-data="{&quot;index&quot;:null}" fill="#818181" stroke="#000000" stroke-width="3.5" stroke-linecap="butt"/><path d="M306.40081,102.19781c0,7.30382 -6.15775,13.22474 -13.75372,13.22474c-7.59597,0 -13.75372,-5.92092 -13.75372,-13.22474c0,-7.30382 6.15775,-13.22474 13.75372,-13.22474c7.59597,0 13.75372,5.92092 13.75372,13.22474z" fill="#5a5a5a" stroke="#000000" stroke-width="3.5" stroke-linecap="butt"/><text transform="translate(201.6609,113.0421) scale(0.43123,0.43123)" font-size="40" xml:space="preserve" fill="#000000" fill-rule="nonzero" stroke="#000000" stroke-width="5" stroke-linecap="butt" stroke-linejoin="miter" stroke-miterlimit="10" stroke-dasharray="" stroke-dashoffset="0" font-family="Handwriting" font-weight="normal" text-anchor="start" style="mix-blend-mode: normal"><tspan x="0" dy="0">4K</tspan></text><path d="M197.33911,102.81369l-7.5356,-8.22065" fill="none" stroke="#000000" stroke-width="3.5" stroke-linecap="round"/><path d="M226.11137,95.2781l8.22065,-6.85054" fill="none" stroke="#000000" stroke-width="3.5" stroke-linecap="round"/><path d="M178.47376,215.61687c-6.95028,0 -12.58459,-4.64003 -12.58459,-10.36378c0,-3.02875 11.55654,-12.92009 17.19507,-25.74583c5.01719,-11.4124 -6.40244,-26.07307 -3.12994,-26.07307c0.47879,0 5.99018,-8.80997 11.96241,-9.17571c6.56358,-0.40195 13.68377,7.70292 15.29182,9.314c2.50251,2.50723 -12.01776,-2.87395 -13.25569,2.41356c-0.25731,1.09902 3.03988,-1.78645 5.41899,-0.89047c0.72711,0.27383 5.34949,3.49018 3.54591,4.8816c-1.33965,1.03351 -7.71546,1.60612 -8.1173,2.81279c-0.69248,2.07943 4.17234,-2.76807 5.15218,-0.33414c0.26475,0.65766 2.89921,4.08835 2.07367,5.47295c-0.70662,1.18513 -4.85246,0.26833 -5.08659,1.56536c-0.26074,1.44447 -4.68084,6.22033 -4.20492,7.29497c0.46801,1.05676 6.67418,-5.24137 6.84216,-5.0562c1.67679,1.8484 9.44111,-2.14413 10.36295,-0.05315c0.31823,0.72183 -0.07511,5.46317 -1.80475,6.66476c-2.21385,1.53798 -6.02838,-0.36892 -7.04228,1.27348c-1.55174,2.51364 -2.20584,4.70147 -2.24283,5.19183c-0.07479,0.99139 -1.2019,7.42956 -5.57336,14.16579c-5.25965,8.10489 -13.97765,16.64127 -14.8029,16.64127z" fill="#fdfff2" stroke="#000000" stroke-width="3.5" stroke-linecap="butt"/><path d="M123.63363,380.45061c0,0 0,-20.4894 0,-40.90649c0,-60.82042 0,-362.99741 0,-362.99741h232.73273v403.9039z" fill="none" stroke="#ffffff" stroke-width="2" stroke-linecap="butt"/></g></g></svg>