<svg version="1.1" xmlns="http://www.w3.org/2000/svg" xmlns:xlink="http://www.w3.org/1999/xlink" width="497.4955" height="424.20879" viewBox="0,0,497.4955,424.20879"><g transform="translate(8.74775,41.25674)"><g data-paper-data="{&quot;isPaintingLayer&quot;:true}" fill-rule="nonzero" stroke-linejoin="miter" stroke-miterlimit="10" stroke-dasharray="" stroke-dashoffset="0" style="mix-blend-mode: normal"><path d="M-7.74775,381.95205v-403.9039h495.4955v403.9039z" fill="#000000" stroke="#000000" stroke-width="2" stroke-linecap="butt"/><path d="M258.61922,201.3919v-233.98013h81.14918v233.98013z" fill="#a7d69c" stroke="#000000" stroke-width="5" stroke-linecap="butt"/><path d="M200.10165,100.87959v-127.13371h51.39448v127.13371z" fill="#85ab7c" stroke="#000000" stroke-width="5" stroke-linecap="butt"/><path d="M268.30324,-0.29537c4.07063,17.76274 -4.32485,34.84248 -4.32485,34.84248c0,0 -14.99527,-11.71936 -19.0659,-29.4821c-4.07063,-17.76274 -2.13433,-33.36225 4.32485,-34.84248c6.45918,-1.48023 14.99527,11.71936 19.0659,29.4821z" fill="#85ab7c" stroke="#000000" stroke-width="2.5" stroke-linecap="butt"/><path d="M335.87436,286.86336v-313.77682l23.02023,2.10953l0.394,313.91017z" fill="#b9f7ac" stroke="#000000" stroke-width="5" stroke-linecap="butt"/><path d="M126.38643,176.61883l-5.27375,-203.00914l80.34146,-5.27375v208.28289z" fill="#6f5852" stroke="none" stroke-width="0" stroke-linecap="butt"/><path d="M353.28278,331.47933c-21.36479,18.38756 15.02979,2.4844 -50.21958,2.4844c-144.81788,0 -179.42572,-0.27882 -179.42572,-89.98382c0,-51.79618 1.22794,-74.25463 0.24654,-106.17582c-0.46175,-15.01933 1.08405,-54.0001 2.12313,-72.77595c0.53664,-9.69689 -1.58535,-40.40855 -3.08506,-74.44064c-0.66664,-15.12743 -2.11658,-30.09424 4.60885,-30.09424c1.40588,0 5.97085,23.04621 38.4515,40.16445c41.99355,22.13182 40.13589,-13.04335 89.33799,12.64571c28.847,15.06138 -3.98639,58.25429 30.41416,92.75458c14.45255,14.49445 70.26698,9.5481 70.26698,9.5481c0,0 6.12014,208.26606 -2.71878,215.87324z" fill="#42a62a" stroke="#000000" stroke-width="3.5" stroke-linecap="butt"/><path d="M121.39077,369.44504v-127.85762c0,0 20.83402,-7.63358 39.14526,-43.25693c0.42448,-0.82578 -0.32488,21.8897 -0.32488,21.8897l22.10882,-9.4005c0,0 2.64104,30.76774 18.92847,30.76774c45.72614,0 155.21607,0 155.21607,0l0.64325,127.85761z" fill="#87c47e" stroke="#000000" stroke-width="5" stroke-linecap="butt"/><path d="M123.63363,380.45057v-403.9039h232.73273v403.9039z" fill="none" stroke="#ffffff" stroke-width="2" stroke-linecap="butt"/><path d="M211.04946,215.66517c0.27434,0.54784 3.87461,5.72691 6.01833,9.59125c2.14372,3.86434 6.21213,6.65491 5.82933,11.76573c-0.38281,5.11082 -3.25557,8.58434 -7.25137,7.2203c-3.9958,-1.36404 -3.73651,-9.31959 -4.84295,-11.34894c-2.71677,-4.98293 -8.46603,-8.39036 -8.16369,-9.10655" fill="none" stroke="#000000" stroke-width="3.5" stroke-linecap="round"/><path d="M237.19156,274.2718c4.413,-2.37923 10.97046,1.78038 11.28199,5.05141c0.22102,2.32077 0.56676,5.951 0.56676,5.951" fill="none" stroke="#000000" stroke-width="5" stroke-linecap="round"/><path d="M240.02412,197.38881c-40.86907,0 -82.52603,-6.64948 -82.52603,-19.62817c0,-2.95899 72.58541,-15.12475 83.70825,-15.12475c13.44866,0 81.23742,9.00195 83.48889,17.02255c2.60099,9.26571 -62.76471,17.73037 -84.67111,17.73037z" fill="#dbcbbb" stroke="#000000" stroke-width="5" stroke-linecap="butt"/><path d="M185.37304,266.01731c-0.51878,-4.84093 0.67216,-24.88194 0.67216,-24.88194c0,0 -3.74912,16.15547 -3.93826,11.96223c-0.21801,-4.83326 -17.18751,21.53026 -17.10697,11.67083c0.08278,-10.135 9.33901,-22.72814 14.13704,-40.28582c2.99086,-10.94461 -3.28697,9.75607 -2.94217,8.50425c0.989,-3.59064 2.59626,-16.57078 8.53523,-27.84791c8.80927,-16.72734 22.89176,-32.74869 24.11896,-33.46877c11.62201,-6.81945 17.79466,-12.85333 32.71115,-11.12525c14.88143,1.72402 32.83242,1.27545 44.46231,7.77491c0.8926,0.49883 -11.84006,48.92525 -9.85363,70.5226c0.18228,1.98183 0.49476,-14.33181 0.59478,-12.30386c0.03871,0.78486 4.98726,6.27886 8.37857,13.85379c2.73597,6.11116 5.27094,17.01561 6.47696,23.31317c0.33637,1.75646 -2.50148,3.34622 -6.6204,2.18203c-3.93814,-1.11309 -9.66452,-7.49249 -9.69113,-6.94308c-0.12704,2.62334 -1.40116,-13.30092 -1.92217,-8.46928c-0.44241,4.10273 -10.24444,11.93724 -12.24502,21.46943c-3.15532,15.03422 1.03485,29.74342 0.06259,32.24822c-2.61615,6.73994 -7.38095,5.78658 -10.22317,7.1646c-4.99033,2.41951 -19.30533,-21.60838 -20.44871,-21.27203c-4.46761,1.31423 16.79964,-4.97838 8.78184,-3.14135c-9.74603,2.233 -18.21338,2.99012 -25.88596,7.1324c-11.11465,6.00058 -4.35508,16.40049 -13.97382,19.80476c-5.95915,2.10906 -5.12228,-3.08306 -9.43303,-2.71782c-4.48499,0.38 -4.88919,-20.6184 -5.59582,-21.19344c0,0 1.4037,-19.70666 0.94868,-23.95265z" data-paper-data="{&quot;index&quot;:null}" fill="#f2ebe5" stroke="#000000" stroke-width="5" stroke-linecap="butt"/><path d="" fill="#000000" stroke="#000000" stroke-width="5" stroke-linecap="butt"/><path d="M253.27782,222.51109c0,3.40176 -7.4851,-2.41913 -16.71845,-2.41913c-9.23334,0 -16.71845,5.82089 -16.71845,2.41913c0,-3.40176 6.71227,-8.13897 15.94562,-8.13897c9.23334,0 17.49128,4.73721 17.49128,8.13897z" fill="none" stroke="#000000" stroke-width="2.5" stroke-linecap="butt"/><path d="M272.01214,194.05893c0,1.38591 -3.55506,11.09293 -4.89258,12.24519c-3.13942,2.70458 -9.48688,-12.24519 -16.80614,-12.24519c-4.3205,0 -8.94134,11.19394 -14.51446,12.49948c-3.53596,0.82832 -3.26564,-9.73051 -9.61614,-12.6108c-2.14818,-0.97431 -11.93076,-1.83861 -16.44149,2.14806c-3.87228,3.42239 0.41336,11.70858 -2.86223,11.85893c-6.80026,0.31214 -8.83304,-18.8521 -1.62234,-19.89252c14.27938,-2.06035 40.92111,-2.40265 47.85649,-2.40265c4.65261,0 11.71238,0.74722 15.00525,1.98639c4.09427,1.54075 3.89364,3.84203 3.89364,6.41312z" fill="#000000" stroke="#000000" stroke-width="2.5" stroke-linecap="butt"/><path d="M239.18229,201.81577l-9.11115,-11.88682l2.18483,-1.16086l8.22243,12.77554z" fill="#fff8f2" stroke="none" stroke-width="0" stroke-linecap="butt"/><path d="M266.15887,202.14114l-7.25786,-10.51257l1.8122,-1.45157c0,0 1.91808,4.23747 3.37471,6.06923c1.20494,1.51525 4.75408,4.15303 4.75408,4.15303z" fill="#fff8f2" stroke="none" stroke-width="0" stroke-linecap="butt"/><path d="M219.29236,233.03759c0,0 10.2102,-2.55511 15.18806,-2.81259c4.8138,-0.24899 14.20341,1.29234 14.20341,1.29234" fill="none" stroke="#000000" stroke-width="2.5" stroke-linecap="round"/><path d="M324.69564,177.43235c0,0 -47.21649,-8.77566 -83.8386,-8.77566c-35.72413,0 -83.16747,7.93987 -83.16747,7.93987c0,0 8.25371,-26.48581 21.71857,-37.7162c6.94963,-5.79635 32.74118,-42.05778 61.58697,-42.05778c50.79311,0 83.70054,80.60978 83.70054,80.60978z" data-paper-data="{&quot;index&quot;:null}" fill="#d8276f" stroke="#000000" stroke-width="3.5" stroke-linecap="butt"/></g></g></svg>