<svg version="1.1" xmlns="http://www.w3.org/2000/svg" xmlns:xlink="http://www.w3.org/1999/xlink" width="497.4955" height="424.20879" viewBox="0,0,497.4955,424.20879"><g transform="translate(8.74775,41.25674)"><g data-paper-data="{&quot;isPaintingLayer&quot;:true}" fill-rule="nonzero" stroke-linejoin="miter" stroke-miterlimit="10" stroke-dasharray="" stroke-dashoffset="0" style="mix-blend-mode: normal"><path d="M-7.74775,381.95205v-403.9039h495.4955v403.9039z" fill="#000000" stroke="#000000" stroke-width="2" stroke-linecap="butt"/><path d="M258.61922,201.3919v-233.98013h81.14918v233.98013z" fill="#a7d69c" stroke="#000000" stroke-width="5" stroke-linecap="butt"/><path d="M200.10165,100.87959v-127.13371h51.39448v127.13371z" fill="#85ab7c" stroke="#000000" stroke-width="5" stroke-linecap="butt"/><path d="M268.30324,-0.29537c4.07063,17.76274 -4.32485,34.84248 -4.32485,34.84248c0,0 -14.99527,-11.71936 -19.0659,-29.4821c-4.07063,-17.76274 -2.13433,-33.36225 4.32485,-34.84248c6.45918,-1.48023 14.99527,11.71936 19.0659,29.4821z" fill="#85ab7c" stroke="#000000" stroke-width="2.5" stroke-linecap="butt"/><path d="M335.87436,286.86336v-313.77682l23.02023,2.10953l0.394,313.91017z" fill="#b9f7ac" stroke="#000000" stroke-width="5" stroke-linecap="butt"/><path d="M126.38643,176.61883l-5.27375,-203.00914l80.34146,-5.27375v208.28289z" fill="#6f5852" stroke="none" stroke-width="0" stroke-linecap="butt"/><path d="M353.28278,331.47933c-21.36479,18.38756 15.02979,2.4844 -50.21958,2.4844c-144.81788,0 -179.42572,-0.27882 -179.42572,-89.98382c0,-51.79618 1.22794,-74.25463 0.24654,-106.17582c-0.46175,-15.01933 1.08405,-54.0001 2.12313,-72.77595c0.53664,-9.69689 -1.58535,-40.40855 -3.08506,-74.44064c-0.66664,-15.12743 -2.11658,-30.09424 4.60885,-30.09424c1.40588,0 5.97085,23.04621 38.4515,40.16445c41.99355,22.13182 40.13589,-13.04335 89.33799,12.64571c28.847,15.06138 -3.98639,58.25429 30.41416,92.75458c14.45255,14.49445 70.26698,9.5481 70.26698,9.5481c0,0 6.12014,208.26606 -2.71878,215.87324z" fill="#42a62a" stroke="#000000" stroke-width="3.5" stroke-linecap="butt"/><path d="M121.39077,369.44504v-127.85762c0,0 20.83402,-7.63358 39.14526,-43.25693c0.42448,-0.82578 -0.32488,21.8897 -0.32488,21.8897l22.10882,-9.4005c0,0 2.64104,30.76774 18.92847,30.76774c45.72614,0 155.21607,0 155.21607,0l0.64325,127.85761z" fill="#87c47e" stroke="#000000" stroke-width="5" stroke-linecap="butt"/><path d="M123.63363,380.45057v-403.9039h232.73273v403.9039z" fill="none" stroke="#ffffff" stroke-width="2" stroke-linecap="butt"/><path d="M211.04946,215.66517c0.27434,0.54784 3.87461,5.72691 6.01833,9.59125c2.14372,3.86434 6.21213,6.65491 5.82933,11.76573c-0.38281,5.11082 -3.25557,8.58434 -7.25137,7.2203c-3.9958,-1.36404 -3.73651,-9.31959 -4.84295,-11.34894c-2.71677,-4.98293 -8.46603,-8.39036 -8.16369,-9.10655" fill="none" stroke="#000000" stroke-width="3.5" stroke-linecap="round"/><path d="M306.95941,154.62863c0,0 -50.59886,-17.78151 -87.22097,-17.78151c-35.72413,0 -77.25136,22.01322 -77.25136,22.01322c0,0 8.25371,-19.39132 21.71857,-30.62171c6.94963,-5.79635 33.33858,-24.13597 62.18437,-24.13597c16.17494,0 30.21858,5.12377 41.84807,12.10802c24.88983,14.94793 38.72133,38.41795 38.72133,38.41795z" data-paper-data="{&quot;index&quot;:null}" fill="#d8276f" stroke="#000000" stroke-width="3.5" stroke-linecap="butt"/><path d="M266.57289,117.97494c-1.16603,2.92481 -5.21187,4.05976 -9.03664,2.53494c-3.82476,-1.52482 -5.98009,-5.13195 -4.81406,-8.05677c1.16603,-2.92481 15.01672,2.59702 13.8507,5.52183z" fill="#f6edf0" stroke="#000000" stroke-width="3.5" stroke-linecap="butt"/><path d="M237.19156,274.2718c4.413,-2.37923 10.97046,1.78038 11.28199,5.05141c0.22102,2.32077 0.56676,5.951 0.56676,5.951" fill="none" stroke="#000000" stroke-width="5" stroke-linecap="round"/><path d="M174.18986,123.02159c2.13515,2.40812 3.10537,9.01333 -0.04371,11.80546c-3.14908,2.79213 -9.225,0.71384 -11.36014,-1.69428c-2.13515,-2.40812 9.2687,-12.51929 11.40385,-10.11117z" fill="#f6edf0" stroke="#000000" stroke-width="3.5" stroke-linecap="butt"/><path d="M309.17351,160.37629c0,12.97869 -41.96255,39.03952 -82.83162,39.03952c-40.86907,0 -76.37081,-19.51591 -83.53953,-35.48157c-1.21204,-2.69936 6.48965,-7.61386 23.2601,-16.04033c0.99412,-0.95245 40.02415,-7.85545 50.35029,-7.85545c28.98507,0 92.76078,16.56385 92.76078,20.33783z" fill="#dbcbbb" stroke="#000000" stroke-width="5" stroke-linecap="butt"/><path d="M193.03715,311.82052c-10.0221,-8.15573 -7.20909,-35.87162 -7.66411,-40.11761c-0.38571,-3.59918 -1.2539,-20.02342 -1.98972,-30.87691c-0.25386,-3.74454 -0.49197,-6.82599 -0.68906,-8.4889c-2.7319,-23.04951 -5.42991,-45.24728 9.43203,-53.96782c11.62201,-6.81945 17.79466,-13.36008 32.71115,-11.632c16.02358,1.85634 19.9894,2.86751 33.12108,9.98981c0.1879,0.10191 6.11953,11.66111 6.80714,18.36787c1.20337,11.73736 -2.56391,23.40026 -1.8066,38.7546c1.13504,23.01298 6.16508,42.76902 5.73949,46.93982c-0.01884,0.18461 3.12624,8.13467 -1.03307,13.05078c-0.04644,0.05489 -2.21272,0.21493 -2.3561,1.58011c-0.54357,5.17551 -0.10532,20.15199 -2.52717,24.65254c-3.66758,6.81552 -7.40185,4.84077 -11.0403,6.24652c-2.44908,0.94622 2.43546,-9.6311 -0.34699,-18.279c-1.84692,-5.74026 -11.75046,-10.63042 -12.4787,-10.73606c-3.68112,-0.53396 11.34025,-3.36025 5.89763,-2.71327c-10.02136,1.19128 -23.9771,7.46009 -28.79569,12.06283c-1.50625,1.43878 -10.17326,4.15264 -10.63155,9.35609c-0.42175,4.78859 11.06472,10.76522 7.37966,14.88805c-3.03223,3.39243 -13.90046,2.53801 -17.91685,-3.28088c-3.25173,-4.71106 0.25173,-14.11694 -1.81226,-15.79656z" data-paper-data="{&quot;index&quot;:null}" fill="#f2ebe5" stroke="#000000" stroke-width="5" stroke-linecap="butt"/><path d="M163.63399,167.00003l13,6" fill="none" stroke="#ab9d83" stroke-width="2" stroke-linecap="round"/><path d="M275.34189,165.38145l17,-5" fill="none" stroke="#ab9d83" stroke-width="2" stroke-linecap="round"/><path d="M183.30717,203.53395c0,14.02208 79.45335,15.81427 79.45335,1.79218c0,-5.96714 -3.21439,-23.5605 -3.97488,-24.38521c-7.58522,-8.22578 -25.61238,-11.7571 -37.84268,-11.7571c-13.83587,0 -26.24937,6.2858 -32.62669,14.81044c-4.41995,5.90819 -5.00911,13.79964 -5.00911,19.53969z" fill="#cdc8c3" stroke="none" stroke-width="0" stroke-linecap="butt"/><path d="M236.57409,220.77207c0,1.78102 -10.03464,-2.3575 -11.7114,-2.3575c-4.64514,0 -13.38596,5.14459 -13.38596,2.3575c0,-2.78708 6.94864,-7.95503 11.59378,-7.95503c4.64514,0 13.50358,5.16794 13.50358,7.95503z" fill="none" stroke="#000000" stroke-width="2.5" stroke-linecap="butt"/><path d="M202.07481,193.15041c3.42919,0 6.20909,2.77992 6.20909,6.20911c0,3.42919 -2.7799,6.20909 -6.20909,6.20909c-3.42919,0 -6.20913,-2.7799 -6.20913,-6.20909c0,-3.42917 2.77994,-6.20911 6.20913,-6.20911z" fill="#ff2e82" stroke="none" stroke-width="0" stroke-linecap="butt"/><path d="M242.91843,190.98168c3.42919,0 6.20909,2.77992 6.20909,6.20911c0,3.42919 -2.7799,6.2091 -6.20909,6.2091c-3.42919,0 -6.20913,-2.77991 -6.20913,-6.2091c0,-3.42917 2.77994,-6.20911 6.20913,-6.20911z" fill="#ff2e82" stroke="none" stroke-width="0" stroke-linecap="butt"/><path d="M210.35371,199.7948l-10.64107,-11.35048" fill="none" stroke="#ff2e82" stroke-width="2.5" stroke-linecap="round"/><path d="M246.30934,187.24953l-11.46996,9.5583" fill="none" stroke="#ff2e82" stroke-width="2.5" stroke-linecap="round"/><g data-paper-data="{&quot;index&quot;:null}" fill="#f2ebe5"><path d="M261.59202,230.35888c0,0 5.29326,2.19385 8.98509,6.24666c3.47787,3.81792 5.40009,9.4873 4.3899,10.14722c-1.20474,0.787 -18.00863,8.55611 -21.4283,6.80877c-3.74961,-1.91593 7.11308,-12.21068 7.11308,-12.21068z" data-paper-data="{&quot;index&quot;:null}" stroke="#000000" stroke-width="3.5" stroke-linecap="round"/><path d="M256.58712,241.61235v-12.54527l7.16872,4.18176l-0.59739,5.97394z" data-paper-data="{&quot;index&quot;:null}" stroke="none" stroke-width="0" stroke-linecap="butt"/></g><g data-paper-data="{&quot;index&quot;:null}" fill="#f2ebe5"><path d="M185.11573,246.35085c0,0 10.86269,10.29475 7.11308,12.21068c-3.41967,1.74734 -20.22356,-6.02177 -21.4283,-6.80877c-1.01019,-0.65992 0.91203,-6.3293 4.3899,-10.14722c3.69183,-4.05281 8.98509,-6.24666 8.98509,-6.24666z" data-paper-data="{&quot;index&quot;:null}" stroke="#000000" stroke-width="3.5" stroke-linecap="round"/><path d="M182.60907,244.22278l-0.59739,-5.97394l7.16872,-4.18176v12.54527z" data-paper-data="{&quot;index&quot;:null}" stroke="none" stroke-width="0" stroke-linecap="butt"/></g><path d="M206.60552,230.11797c0,0 13.48897,4.21448 18.57063,4.51938c4.86549,0.29193 18.46777,-2.7272 18.46777,-2.7272" fill="none" stroke="#000000" stroke-width="3.5" stroke-linecap="round"/></g></g></svg>