<svg version="1.1" xmlns="http://www.w3.org/2000/svg" xmlns:xlink="http://www.w3.org/1999/xlink" width="497.4955" height="422.52602" viewBox="0,0,497.4955,422.52602"><g transform="translate(8.74775,39.57397)"><g data-paper-data="{&quot;isPaintingLayer&quot;:true}" fill-rule="nonzero" stroke-linejoin="miter" stroke-miterlimit="10" stroke-dasharray="" stroke-dashoffset="0" style="mix-blend-mode: normal"><path d="M-7.74775,381.95205v-403.9039h495.4955v403.9039z" fill="#000000" stroke="#000000" stroke-width="2" stroke-linecap="butt"/><path d="M240.67624,196.90616v-233.98013h81.14918v233.98013z" fill="#a7d69c" stroke="#000000" stroke-width="5" stroke-linecap="butt"/><path d="M237.3983,53.4136v-75.99084h93.98867v75.99084c0,0 -18.61837,13.33246 -31.49268,3.93888c-7.58921,-5.53737 -9.26783,-35.93502 -14.50178,-35.93502c-7.56804,0 0.06369,30.54735 -16.19962,39.67763c-16.26331,9.13028 -31.79459,-7.68149 -31.79459,-7.68149z" fill="#70432e" stroke="#000000" stroke-width="5" stroke-linecap="butt"/><path d="M200.10165,100.87959v-127.13371h51.39448v127.13371z" fill="#85ab7c" stroke="#000000" stroke-width="5" stroke-linecap="butt"/><path d="M305.59558,290.22767v-313.77682c0,0 52.17758,0.12858 52.17758,5.47384c0,30.36805 2.63688,308.30298 2.63688,308.30298z" fill="#b9f7ac" stroke="#000000" stroke-width="5" stroke-linecap="butt"/><path d="M126.38643,176.61883l-5.27375,-203.00914l80.34146,-5.27375v208.28289z" fill="#6f5852" stroke="none" stroke-width="0" stroke-linecap="butt"/><path d="M312.35802,205.69732c0,11.74502 14.25093,-0.75924 14.60355,8.4923c0.27019,7.08898 16.47283,9.71102 22.6971,21.59272c7.36676,14.06263 4.55037,37.30166 -1.08004,42.14745c-13.60941,11.71291 -69.71963,12.29792 -111.2836,12.29792c-92.24926,0 -114.29452,-0.17761 -114.29452,-57.31986c0,-32.99426 0.7822,-47.30034 0.15705,-67.6342c-0.29414,-9.56734 0.69054,-34.39816 1.35244,-46.35841c0.34184,-6.17694 -1.00987,-25.74032 -1.96519,-47.41883c-0.42465,-9.6362 -2.06262,-19.17009 2.22149,-19.17009c0.89555,0 4.5178,14.68048 25.20803,25.58483c26.74997,14.09801 25.56663,-8.30864 56.90846,8.05534c18.37559,9.59413 -2.53934,37.10809 19.37388,59.08484c9.2063,9.23299 30.33356,0.15115 46.90327,6.08216c16.07776,5.75492 12.56425,30.97081 23.67499,39.435c10.28441,7.83468 15.52309,11.16478 15.52309,15.12883z" fill="#42a62a" stroke="#000000" stroke-width="3.5" stroke-linecap="butt"/><path d="M123.63364,362.71642v-93.09309c0,0 15.16924,-5.55801 28.50165,-31.49536c0.30906,-0.60125 -0.23655,15.93789 -0.23655,15.93789l16.09743,-6.8445c0,0 1.92294,22.40198 13.78181,22.40198c33.29319,0 77.574,0 113.01277,0c19.54677,0 12.04234,-22.23202 12.04234,-22.23202c0,0 3.7352,16.22191 10.708,9.85038c2.81042,-2.56808 10.2939,-17.90037 10.2939,-17.90037c0,0 2.4852,9.25501 8.15761,14.10545c4.71795,4.03429 17.52858,-13.36101 17.52858,-13.36101c0,0 -8.87696,18.00281 -6.50113,24.71273c3.1321,8.84584 7.84482,4.82483 7.84482,4.82483v93.09309z" fill="#87c47e" stroke="#000000" stroke-width="5" stroke-linecap="butt"/><path d="M140.09294,268.40128l-6.48434,-16.67401" fill="none" stroke="#b8ecb0" stroke-width="5" stroke-linecap="round"/><path d="M134.53493,269.32759l-9.26334,-20.37935" fill="none" stroke="#b8ecb0" stroke-width="5" stroke-linecap="round"/><path d="M127.96365,348.13536l1.85267,-10.18968" fill="none" stroke="#b8ecb0" stroke-width="10" stroke-linecap="round"/><path d="M135.95994,349.98802l-1.85267,8.33701" fill="none" stroke="#b8ecb0" stroke-width="10" stroke-linecap="round"/><path d="M290.65774,320.34524l4.63167,12.96868" fill="none" stroke="#b8ecb0" stroke-width="5" stroke-linecap="round"/><path d="M296.21575,311.08191l9.26334,20.37935" fill="none" stroke="#b8ecb0" stroke-width="5" stroke-linecap="round"/><path d="M123.63363,380.45057v-403.9039h232.73273v403.9039z" fill="none" stroke="#ffffff" stroke-width="2" stroke-linecap="butt"/><path d="M225.3844,317.24105c-10.0221,-8.15573 -24.56803,-66.51059 -24.56803,-66.51059c0,0 -7.99281,3.13148 -12.34286,2.41514c-2.94373,-0.48476 7.78774,-14.22596 7.47763,-16.8424c-2.7319,-23.04951 -25.72639,-41.40749 -10.86445,-50.12803c11.62201,-6.81945 21.63445,-15.91994 36.55094,-14.19186c8.70993,1.00905 29.71085,8.73284 37.85089,20.56281c3.73428,5.42706 17.14042,21.99693 19.68379,39.45845c2.11194,14.49955 -6.24666,29.61389 -6.6416,39.47366c-0.20823,5.19835 -6.90697,11.53202 -9.33699,18.34423c-3.26677,9.15787 7.04937,18.36457 6.80697,19.09088c-0.56666,1.69786 -5.19514,4.79878 -7.35984,3.21949c-2.22316,-1.62195 -12.67032,-10.02414 -17.40181,-12.73939c-3.27425,-1.87898 -8.9996,2.00362 -10.76927,0.25482c-2.75317,-2.72069 1.75436,-4.96027 0.35926,-5.71193c-5.85438,-3.15425 2.31781,17.25171 -2.71324,21.0538c-6.115,4.62126 -5.13374,3.551 -6.73136,2.25089z" data-paper-data="{&quot;index&quot;:null}" fill="#f2ebe5" stroke="#000000" stroke-width="5" stroke-linecap="butt"/><path d="M268.30324,-0.29537c4.07063,17.76274 -4.32485,34.84248 -4.32485,34.84248c0,0 -14.99527,-11.71936 -19.0659,-29.4821c-4.07063,-17.76274 -2.13433,-33.36225 4.32485,-34.84248c6.45918,-1.48023 14.99527,11.71936 19.0659,29.4821z" fill="#85ab7c" stroke="#000000" stroke-width="5" stroke-linecap="butt"/><path d="M305.46797,195.95317c-2.95504,11.84192 -27.93369,2.63944 -36.05876,2.11219c-19.018,-1.23412 -32.2855,-4.58466 -57.77123,-7.56643c-35.4821,-4.15133 -48.68681,2.39076 -74.35489,-12.2962c-25.66807,-14.68696 11.09114,-29.18024 25.76981,-38.76985c7.57611,-4.9495 34.26885,-15.71235 62.91922,-12.36032c5.61088,0.65646 11.07915,1.52959 16.35352,2.6175c14.9211,3.07766 28.93047,19.39357 39.5876,25.86617c19.44699,11.81112 29.22256,17.6839 23.55474,40.39695z" data-paper-data="{&quot;index&quot;:null}" fill="#d8276f" stroke="#000000" stroke-width="3.5" stroke-linecap="butt"/><path d="M204.23147,207.0476c0,0 -4.19971,2.75 -6.125,2.75" data-paper-data="{&quot;index&quot;:null}" fill="none" stroke="#000000" stroke-width="3.5" stroke-linecap="round"/><path d="M238.41499,204.78468c-2.68857,1.23236 -8.24749,2.64073 -13.60759,-1.18803" fill="none" stroke="#000000" stroke-width="3.5" stroke-linecap="round"/><path d="M211.03327,222.10288c1.78457,-1.92727 8.71317,-1.36965 9.5,-0.5" data-paper-data="{&quot;index&quot;:null}" fill="none" stroke="#000000" stroke-width="2" stroke-linecap="round"/><path d="M260.67378,169.398c0,4.13656 -3.91224,7.48991 -8.73822,7.48991c-4.82599,0 -8.73822,-3.35335 -8.73822,-7.48991c0,-4.13656 3.91224,-7.4899 8.73822,-7.4899c4.82599,0 8.73823,3.35334 8.73823,7.4899z" fill="#f6edf0" stroke="#000000" stroke-width="3.5" stroke-linecap="butt"/><path d="M187.90879,150.28623c1.34727,2.56307 -0.15415,10.34334 -3.93772,12.33217c-3.78357,1.98883 -10.71999,-0.34957 -12.06726,-2.91264c-0.63912,-1.21588 -0.57312,-8.4545 3.18042,-10.74516c4.15892,-2.53805 12.1164,-0.02156 12.82456,1.32563z" fill="#f6edf0" stroke="#000000" stroke-width="3.5" stroke-linecap="butt"/><path d="M235.15669,130.18653c-0.12144,3.77939 -4.12315,7.41981 -9.06545,7.261c-4.9423,-0.15881 -8.95362,-4.05669 -8.83218,-7.83608c0.05793,-1.80296 4.1613,-2.11561 8.42399,-2.06148c4.67284,0.05933 9.53714,0.66013 9.47364,2.63657z" fill="#f6edf0" stroke="#000000" stroke-width="3.5" stroke-linecap="butt"/><path d="M249.71632,248.65116c0,0 -10.36521,-2.34058 -13.65413,-4.2106c-2.74222,-1.55916 -0.12136,-4.75498 0.90417,-5.82588c1.9566,-2.04318 13.26679,-1.01713 13.26679,-1.01713" fill="none" stroke="#000000" stroke-width="3.5" stroke-linecap="round"/></g></g></svg>