<svg version="1.1" xmlns="http://www.w3.org/2000/svg" xmlns:xlink="http://www.w3.org/1999/xlink" width="497.4955" height="422.52604" viewBox="0,0,497.4955,422.52604"><g transform="translate(8.74775,39.57405)"><g data-paper-data="{&quot;isPaintingLayer&quot;:true}" fill-rule="nonzero" stroke-linejoin="miter" stroke-miterlimit="10" stroke-dasharray="" stroke-dashoffset="0" style="mix-blend-mode: normal"><path d="M-7.74775,381.95199v-403.9039h495.4955v403.9039z" fill="#000000" stroke="#000000" stroke-width="2" stroke-linecap="butt"/><path d="M240.67624,196.90608v-233.98013h81.14918v233.98013z" fill="#a7d69c" stroke="#000000" stroke-width="5" stroke-linecap="butt"/><path d="M237.3983,53.41354v-75.99084h93.98867v75.99084c0,0 -18.61837,13.33246 -31.49268,3.93888c-7.58921,-5.53737 -9.26783,-35.93502 -14.50178,-35.93502c-7.56804,0 0.06369,30.54735 -16.19962,39.67763c-16.26331,9.13028 -31.79459,-7.68149 -31.79459,-7.68149z" fill="#70432e" stroke="#000000" stroke-width="5" stroke-linecap="butt"/><path d="M200.10165,100.87955v-127.13371h51.39448v127.13371z" fill="#85ab7c" stroke="#000000" stroke-width="5" stroke-linecap="butt"/><path d="M305.59558,290.22763v-313.77682c0,0 52.17758,0.12858 52.17758,5.47384c0,30.36805 2.63688,308.30298 2.63688,308.30298z" fill="#b9f7ac" stroke="#000000" stroke-width="5" stroke-linecap="butt"/><path d="M126.38643,176.61878l-5.27375,-203.00914l80.34146,-5.27375v208.28289z" fill="#6f5852" stroke="none" stroke-width="0" stroke-linecap="butt"/><path d="M312.35802,205.69724c0,11.74502 14.25093,-0.75924 14.60355,8.4923c0.27019,7.08898 16.47283,9.71102 22.6971,21.59272c7.36676,14.06263 4.55037,37.30166 -1.08004,42.14745c-13.60941,11.71291 -69.71963,12.29792 -111.2836,12.29792c-92.24926,0 -114.29452,-0.17761 -114.29452,-57.31986c0,-32.99426 0.7822,-47.30034 0.15705,-67.6342c-0.29414,-9.56734 0.69054,-34.39816 1.35244,-46.35841c0.34184,-6.17694 -1.00987,-25.74032 -1.96519,-47.41883c-0.42465,-9.6362 -2.06262,-19.17009 2.22149,-19.17009c0.89555,0 4.5178,14.68048 25.20803,25.58483c26.74997,14.09801 25.56663,-8.30864 56.90846,8.05534c18.37559,9.59413 -2.53934,37.10809 19.37388,59.08484c9.2063,9.23299 30.33356,0.15115 46.90327,6.08216c16.07776,5.75492 12.56425,30.97081 23.67499,39.435c10.28441,7.83468 15.52309,11.16478 15.52309,15.12883z" fill="#42a62a" stroke="#000000" stroke-width="3.5" stroke-linecap="butt"/><path d="M123.63364,362.71634v-93.09309c0,0 15.16924,-5.55801 28.50165,-31.49536c0.30906,-0.60125 -0.23655,15.93789 -0.23655,15.93789l16.09743,-6.8445c0,0 1.92294,22.40198 13.78181,22.40198c33.29319,0 77.574,0 113.01277,0c19.54677,0 12.04234,-22.23202 12.04234,-22.23202c0,0 3.7352,16.22191 10.708,9.85038c2.81042,-2.56808 10.2939,-17.90037 10.2939,-17.90037c0,0 2.4852,9.25501 8.15761,14.10545c4.71795,4.03429 17.52858,-13.36101 17.52858,-13.36101c0,0 -8.87696,18.00281 -6.50113,24.71273c3.1321,8.84584 7.84482,4.82483 7.84482,4.82483v93.09309z" fill="#87c47e" stroke="#000000" stroke-width="5" stroke-linecap="butt"/><path d="M140.09294,268.40124l-6.48434,-16.67401" fill="none" stroke="#b8ecb0" stroke-width="5" stroke-linecap="round"/><path d="M134.53493,269.32755l-9.26334,-20.37935" fill="none" stroke="#b8ecb0" stroke-width="5" stroke-linecap="round"/><path d="M127.96365,348.13528l1.85267,-10.18968" fill="none" stroke="#b8ecb0" stroke-width="10" stroke-linecap="round"/><path d="M135.95994,349.98795l-1.85267,8.33701" fill="none" stroke="#b8ecb0" stroke-width="10" stroke-linecap="round"/><path d="M290.65774,320.34522l4.63167,12.96868" fill="none" stroke="#b8ecb0" stroke-width="5" stroke-linecap="round"/><path d="M296.21575,311.08189l9.26334,20.37935" fill="none" stroke="#b8ecb0" stroke-width="5" stroke-linecap="round"/><path d="M123.63363,380.45049v-403.9039h232.73273v403.9039z" fill="none" stroke="#ffffff" stroke-width="2" stroke-linecap="butt"/><path d="M261.80622,312.41681c-9.1882,6.2781 -17.82739,-13.97169 -21.13385,-13.55465c-5.3171,0.67064 -10.67197,0.2083 -17.04095,-0.5414c-5.12858,-0.60369 -3.8362,13.14568 -12.38638,13.02769c-5.68738,-0.07848 -14.93644,-15.17828 -15.54518,-18.79992c-0.71297,-4.24175 -8.93684,-18.62817 -10.32682,-31.59876c-2.46927,-23.04193 -10.85847,-47.69374 13.24812,-61.83877c24.10659,-14.14503 49.82122,-13.26561 75.17732,0.48691c9.41852,5.10837 0.93563,13.38586 -0.44751,21.93514c-2.34049,14.4667 -3.63324,29.71165 -3.70992,31.69649c-0.37129,9.6116 -0.07068,8.26303 -0.94249,16.80669c-0.59103,5.79201 2.29586,36.10247 -6.89234,42.38056z" data-paper-data="{&quot;index&quot;:null}" fill="#f2ebe5" stroke="#000000" stroke-width="5" stroke-linecap="butt"/><path d="M273.88985,206.80346c-0.3227,0.52083 -2.84558,6.3018 -5.01248,10.1532c-2.1669,3.8514 -2.41039,8.77886 -6.96327,11.13222c-4.55288,2.35336 -9.01686,1.72799 -9.95007,-2.38979c-0.93321,-4.11778 5.97737,-8.06766 7.12545,-10.07375c2.81904,-4.9258 2.70664,-11.60801 3.47502,-11.72601" fill="none" stroke="#000000" stroke-width="3.5" stroke-linecap="round"/><path d="M215.48918,224.16339c-0.52755,0.31158 -5.44518,4.26147 -9.15198,6.66736c-3.7068,2.40589 -6.20926,6.65758 -11.33432,6.62923c-5.12506,-0.02836 -8.78897,-2.65398 -7.70459,-6.73456c1.08438,-4.08058 9.0388,-4.37222 10.98676,-5.61638c4.78307,-3.05494 7.78465,-9.02613 8.52004,-8.77405" fill="none" stroke="#000000" stroke-width="3.5" stroke-linecap="round"/><path d="M321.82542,177.21276c0,17.5535 -41.17595,31.78343 -91.96907,31.78343c-50.79311,0 -91.96907,-14.22993 -91.96907,-31.78343c0,-5.0027 4.02201,-30.39373 17.48687,-41.62412c6.94963,-5.79635 41.25184,-3.67853 45.61933,-5.53856c16.86202,-7.18122 31.12426,-11.67047 59.97005,-11.67047c50.79311,0 60.86188,41.27965 60.86188,58.83315z" data-paper-data="{&quot;index&quot;:null}" fill="#d8276f" stroke="#000000" stroke-width="3.5" stroke-linecap="butt"/><path d="M300.91597,180.537c0,4.85522 -5.14699,8.79116 -11.49613,8.79116c-6.34914,0 -11.49613,-3.93594 -11.49613,-8.79116c0,-4.85522 5.14699,-8.79116 11.49613,-8.79116c6.34914,0 11.49613,3.93594 11.49613,8.79116z" fill="#f6edf0" stroke="#000000" stroke-width="3.5" stroke-linecap="butt"/><path d="M240.65304,140.81407c0,4.85522 -5.14699,8.79116 -11.49613,8.79116c-6.34914,0 -11.49614,-3.93594 -11.49614,-8.79116c0,-4.85523 5.147,-8.79117 11.49614,-8.79117c6.34914,0 11.49613,3.93594 11.49613,8.79117z" fill="#f6edf0" stroke="#000000" stroke-width="3.5" stroke-linecap="butt"/><path d="M268.30324,-0.29541c4.07063,17.76274 -4.32485,34.84248 -4.32485,34.84248c0,0 -14.99527,-11.71936 -19.0659,-29.4821c-4.07063,-17.76274 -2.13433,-33.36225 4.32485,-34.84248c6.45918,-1.48023 14.99527,11.71936 19.0659,29.4821z" fill="#85ab7c" stroke="#000000" stroke-width="5" stroke-linecap="butt"/><path d="M254.64241,295.48178c-1.56316,2.7803 -8.59203,3.05464 -10.99669,3.05464c-2.00079,0 -5.49834,0 -5.49834,0" fill="none" stroke="#000000" stroke-width="5" stroke-linecap="round"/><path d="M311.48618,149.23765c-3.22015,3.63371 -9.68267,3.16575 -14.43445,-1.04522c-4.75177,-4.21097 -3.4065,-14.88184 -0.18635,-18.51554c3.22015,-3.63371 17.84095,15.92706 14.6208,19.56076z" fill="#f6edf0" stroke="#000000" stroke-width="3.5" stroke-linecap="butt"/></g></g></svg>