<svg version="1.1" xmlns="http://www.w3.org/2000/svg" xmlns:xlink="http://www.w3.org/1999/xlink" width="497.4955" height="424.20879" viewBox="0,0,497.4955,424.20879"><g transform="translate(8.74775,41.25674)"><g data-paper-data="{&quot;isPaintingLayer&quot;:true}" fill-rule="nonzero" stroke-linejoin="miter" stroke-miterlimit="10" stroke-dasharray="" stroke-dashoffset="0" style="mix-blend-mode: normal"><path d="M-7.74775,381.95205v-403.9039h495.4955v403.9039z" fill="#000000" stroke="#000000" stroke-width="2" stroke-linecap="butt"/><path d="M258.61922,201.3919v-233.98013h81.14918v233.98013z" fill="#a7d69c" stroke="#000000" stroke-width="5" stroke-linecap="butt"/><path d="M200.10165,100.87959v-127.13371h51.39448v127.13371z" fill="#85ab7c" stroke="#000000" stroke-width="5" stroke-linecap="butt"/><path d="M268.30324,-0.29537c4.07063,17.76274 -4.32485,34.84248 -4.32485,34.84248c0,0 -14.99527,-11.71936 -19.0659,-29.4821c-4.07063,-17.76274 -2.13433,-33.36225 4.32485,-34.84248c6.45918,-1.48023 14.99527,11.71936 19.0659,29.4821z" fill="#85ab7c" stroke="#000000" stroke-width="2.5" stroke-linecap="butt"/><path d="M335.87436,286.86336v-313.77682l23.02023,2.10953l0.394,313.91017z" fill="#b9f7ac" stroke="#000000" stroke-width="5" stroke-linecap="butt"/><path d="M126.38643,176.61883l-5.27375,-203.00914l80.34146,-5.27375v208.28289z" fill="#6f5852" stroke="none" stroke-width="0" stroke-linecap="butt"/><path d="M353.28278,331.47933c-21.36479,18.38756 15.02979,2.4844 -50.21958,2.4844c-144.81788,0 -179.42572,-0.27882 -179.42572,-89.98382c0,-51.79618 1.22794,-74.25463 0.24654,-106.17582c-0.46175,-15.01933 1.08405,-54.0001 2.12313,-72.77595c0.53664,-9.69689 -1.58535,-40.40855 -3.08506,-74.44064c-0.66664,-15.12743 -2.11658,-30.09424 4.60885,-30.09424c1.40588,0 5.97085,23.04621 38.4515,40.16445c41.99355,22.13182 40.13589,-13.04335 89.33799,12.64571c28.847,15.06138 -3.98639,58.25429 30.41416,92.75458c14.45255,14.49445 70.26698,9.5481 70.26698,9.5481c0,0 6.12014,208.26606 -2.71878,215.87324z" fill="#42a62a" stroke="#000000" stroke-width="3.5" stroke-linecap="butt"/><path d="M121.39077,369.44504v-127.85762c0,0 20.83402,-7.63358 39.14526,-43.25693c0.42448,-0.82578 -0.32488,21.8897 -0.32488,21.8897l22.10882,-9.4005c0,0 2.64104,30.76774 18.92847,30.76774c45.72614,0 155.21607,0 155.21607,0l0.64325,127.85761z" fill="#87c47e" stroke="#000000" stroke-width="5" stroke-linecap="butt"/><path d="M123.63363,380.45057v-403.9039h232.73273v403.9039z" fill="none" stroke="#ffffff" stroke-width="2" stroke-linecap="butt"/><path d="M211.04946,215.66517c0.27434,0.54784 3.87461,5.72691 6.01833,9.59125c2.14372,3.86434 6.21213,6.65491 5.82933,11.76573c-0.38281,5.11082 -3.25557,8.58434 -7.25137,7.2203c-3.9958,-1.36404 -3.73651,-9.31959 -4.84295,-11.34894c-2.71677,-4.98293 -8.46603,-8.39036 -8.16369,-9.10655" fill="none" stroke="#000000" stroke-width="3.5" stroke-linecap="round"/><path d="M306.95941,154.62863c0,0 -58.36498,-45.26162 -94.98709,-45.26162c-35.72413,0 -69.48524,49.49332 -69.48524,49.49332c0,0 8.25371,-19.39132 21.71857,-30.62171c6.94963,-5.79635 32.74118,-42.05778 61.58697,-42.05778c50.79311,0 81.16679,68.44779 81.16679,68.44779z" data-paper-data="{&quot;index&quot;:null}" fill="#d8276f" stroke="#000000" stroke-width="3.5" stroke-linecap="butt"/><path d="M272.68831,110.04006c-2.05847,2.38262 -6.253,2.13196 -9.36874,-0.55989c-3.11574,-2.69185 -3.97283,-6.80552 -1.91436,-9.18814c2.05847,-2.38262 13.34156,7.36541 11.2831,9.74803z" fill="#f6edf0" stroke="#000000" stroke-width="3.5" stroke-linecap="butt"/><path d="M237.19156,274.2718c4.413,-2.37923 10.97046,1.78038 11.28199,5.05141c0.22102,2.32077 0.56676,5.951 0.56676,5.951" fill="none" stroke="#000000" stroke-width="5" stroke-linecap="round"/><path d="M230.91541,88.46837c0.17274,3.21373 -3.09409,6.0021 -7.29667,6.228c-4.20258,0.2259 -7.74948,-2.19624 -7.92222,-5.40997c-0.17274,-3.21373 15.04614,-4.03176 15.21888,-0.81803z" fill="#f6edf0" stroke="#000000" stroke-width="3.5" stroke-linecap="butt"/><path d="M309.17351,160.37629c0,12.97869 -41.96255,39.03952 -82.83162,39.03952c-40.86907,0 -83.53953,-24.89246 -83.53953,-37.87115c0,-2.95899 8.87923,-11.19822 22.6627,-24.40384c13.87902,-13.29716 36.24048,-25.17987 47.36332,-25.17987c28.98507,0 96.34514,44.64135 96.34514,48.41533z" fill="#dbcbbb" stroke="#000000" stroke-width="5" stroke-linecap="butt"/><path d="M194.3633,298.85718c-10.0221,-8.15573 -8.53524,-33.66137 -8.99026,-37.90736c-0.51878,-4.84093 -4.39534,-23.36169 -4.39534,-23.36169c0,0 -3.71335,-61.2514 11.14859,-69.97194c11.62201,-6.81945 17.79466,-13.36008 32.71115,-11.632c16.02358,1.85634 25.96334,8.24405 39.09502,15.36635c0.51673,0.28026 8.09389,27.61807 9.28392,51.74593c1.13504,23.01298 -7.86597,73.45207 -12.01335,84.13687c-2.61615,6.73994 -7.38095,8.82708 -10.22317,10.2051c-4.99033,2.41951 -15.25133,-23.63538 -16.39471,-23.29903c-4.46761,1.31423 12.74564,-3.96488 4.72784,-2.12785c-9.74603,2.233 -17.70663,3.49687 -25.37921,7.63915c-11.11465,6.00058 -4.86183,18.42749 -14.48057,21.83176c-5.95915,2.10906 -5.62903,-3.08306 -9.93978,-2.71782c-4.48499,0.38 6.66076,-24.51205 3.77476,-24.30355c-3.14353,0.2271 1.78173,4.97113 1.0751,4.39609z" data-paper-data="{&quot;index&quot;:null}" fill="#f2ebe5" stroke="#000000" stroke-width="5" stroke-linecap="butt"/><path d="M163.63399,167.00003l13,6" fill="none" stroke="#ab9d83" stroke-width="2" stroke-linecap="round"/><path d="M275.34189,165.38145l17,-5" fill="none" stroke="#ab9d83" stroke-width="2" stroke-linecap="round"/><path d="M211.70216,125.40141l7.78696,23.36088" fill="none" stroke="#ab9d83" stroke-width="2" stroke-linecap="round"/><path d="M203.70767,232.24305c0,0 -3.98055,10.73424 -6.13958,10.59648c-2.41022,-0.15378 -7.65127,-11.4764 -7.65127,-11.4764" fill="none" stroke="#000000" stroke-width="5" stroke-linecap="round"/><path d="M252.52862,229.60329c0,0 -4.43965,11.63458 -7.06087,11.63458c-2.33079,0 -7.89774,-11.63458 -7.89774,-11.63458" fill="none" stroke="#000000" stroke-width="5" stroke-linecap="round"/><path d="M214.58143,179.60137c0,1.94386 -1.57581,3.51967 -3.51967,3.51967c-1.94386,0 -3.51967,-1.57581 -3.51967,-3.51967c0,-1.94386 1.57581,-3.51967 3.51967,-3.51967c1.94386,0 3.51967,1.57581 3.51967,3.51967z" fill="#000000" stroke="#000000" stroke-width="5" stroke-linecap="butt"/><path d="M244.83955,180c0,2.18684 -2.16674,3.95963 -4.83955,3.95963c-2.67281,0 -4.83955,-1.77279 -4.83955,-3.95963c0,-2.18684 2.16674,-3.95963 4.83955,-3.95963c2.67281,0 4.83955,1.77279 4.83955,3.95963z" fill="#000000" stroke="#000000" stroke-width="5" stroke-linecap="butt"/><path d="M238.02448,208.61022c0,3.40176 -7.4851,1.63487 -16.71845,1.63487c-9.23334,0 -16.71845,1.76689 -16.71845,-1.63487c0,-3.40176 7.4851,-6.15943 16.71845,-6.15943c9.23334,0 16.71845,2.75767 16.71845,6.15943z" fill="none" stroke="#000000" stroke-width="2.5" stroke-linecap="butt"/></g></g></svg>