<svg version="1.1" xmlns="http://www.w3.org/2000/svg" xmlns:xlink="http://www.w3.org/1999/xlink" width="497.4955" height="422.52604" viewBox="0,0,497.4955,422.52604"><g transform="translate(8.74775,39.57404)"><g data-paper-data="{&quot;isPaintingLayer&quot;:true}" fill-rule="nonzero" stroke-linejoin="miter" stroke-miterlimit="10" stroke-dasharray="" stroke-dashoffset="0" style="mix-blend-mode: normal"><path d="M-7.74775,381.95201v-403.9039h495.4955v403.9039z" fill="#000000" stroke="#000000" stroke-width="2" stroke-linecap="butt"/><path d="M240.67624,196.9061v-233.98013h81.14918v233.98013z" fill="#a7d69c" stroke="#000000" stroke-width="5" stroke-linecap="butt"/><path d="M237.3983,53.41356v-75.99084h93.98867v75.99084c0,0 -18.61837,13.33246 -31.49268,3.93888c-7.58921,-5.53737 -9.26783,-35.93502 -14.50178,-35.93502c-7.56804,0 0.06369,30.54735 -16.19962,39.67763c-16.26331,9.13028 -31.79459,-7.68149 -31.79459,-7.68149z" fill="#70432e" stroke="#000000" stroke-width="5" stroke-linecap="butt"/><path d="M200.10165,136.87957v-163.13371h51.39448v163.13371z" fill="#85ab7c" stroke="#000000" stroke-width="5" stroke-linecap="butt"/><path d="M305.59558,290.22765v-313.77682c0,0 52.17758,0.12858 52.17758,5.47384c0,30.36805 2.63688,308.30298 2.63688,308.30298z" fill="#b9f7ac" stroke="#000000" stroke-width="5" stroke-linecap="butt"/><path d="M126.38643,176.6188l-5.27375,-203.00914l80.34146,-5.27375v208.28289z" fill="#6f5852" stroke="none" stroke-width="0" stroke-linecap="butt"/><path d="M312.35802,205.69726c0,11.74502 14.25093,-0.75924 14.60355,8.4923c0.27019,7.08898 16.47283,9.71102 22.6971,21.59272c7.36676,14.06263 4.55037,37.30166 -1.08004,42.14745c-13.60941,11.71291 -69.71963,12.29792 -111.2836,12.29792c-92.24926,0 -114.29452,-0.17761 -114.29452,-57.31986c0,-32.99426 0.7822,-47.30034 0.15705,-67.6342c-0.29414,-9.56734 0.69054,-34.39816 1.35244,-46.35841c0.34184,-6.17694 -1.00987,-25.74032 -1.96519,-47.41883c-0.42465,-9.6362 -2.06262,-19.17009 2.22149,-19.17009c0.89555,0 4.5178,14.68048 25.20803,25.58483c26.74997,14.09801 25.56663,-8.30864 56.90846,8.05534c8.67125,4.52737 23.59329,13.04512 23.39519,23.08838c-0.22171,11.23982 13.40609,24.39031 24.97869,35.99646c9.2063,9.23299 1.33356,0.15115 17.90327,6.08216c16.07776,5.75492 12.56425,30.97081 23.67499,39.435c10.28441,7.83468 15.52309,11.16478 15.52309,15.12883z" fill="#42a62a" stroke="#000000" stroke-width="3.5" stroke-linecap="butt"/><path d="M123.63364,362.71636v-93.09309c0,0 15.16924,-5.55801 28.50165,-31.49536c0.30906,-0.60125 -0.23655,15.93789 -0.23655,15.93789l16.09743,-6.8445c0,0 1.92294,22.40198 13.78181,22.40198c33.29319,0 77.574,0 113.01277,0c19.54677,0 12.04234,-22.23202 12.04234,-22.23202c0,0 3.7352,16.22191 10.708,9.85038c2.81042,-2.56808 10.2939,-17.90037 10.2939,-17.90037c0,0 2.4852,9.25501 8.15761,14.10545c4.71795,4.03429 17.52858,-13.36101 17.52858,-13.36101c0,0 -8.87696,18.00281 -6.50113,24.71273c3.1321,8.84584 7.84482,4.82483 7.84482,4.82483v93.09309z" fill="#87c47e" stroke="#000000" stroke-width="5" stroke-linecap="butt"/><path d="M133.6086,251.72725l6.48434,16.67401" fill="none" stroke="#b8ecb0" stroke-width="5" stroke-linecap="round"/><path d="M134.53493,269.32757l-9.26334,-20.37935" fill="none" stroke="#b8ecb0" stroke-width="5" stroke-linecap="round"/><path d="M127.96365,348.1353l1.85267,-10.18968" fill="none" stroke="#b8ecb0" stroke-width="10" stroke-linecap="round"/><path d="M135.95994,349.98797l-1.85267,8.33701" fill="none" stroke="#b8ecb0" stroke-width="10" stroke-linecap="round"/><path d="M295.28941,333.31392l-4.63167,-12.96868" fill="none" stroke="#b8ecb0" stroke-width="5" stroke-linecap="round"/><path d="M296.21575,311.08189l9.26334,20.37935" fill="none" stroke="#b8ecb0" stroke-width="5" stroke-linecap="round"/><path d="M123.63363,380.45051v-403.9039h232.73273v403.9039z" fill="none" stroke="#ffffff" stroke-width="2" stroke-linecap="butt"/><path d="M209.47424,288.14104c1.27471,-1.60703 1.39874,-8.27539 1.39874,-9.07737c0,-3.78705 -5.55522,-9.65199 -6.14625,-16.56757c-0.87181,-10.20102 3.7403,-14.62695 3.36901,-26.10307c-0.01791,-0.55362 -2.16283,-5.51334 0.61274,-8.01613c2.16263,-1.95009 4.1473,-1.19191 3.15428,-3.05029c-1.11293,-2.08278 -8.56427,2.23391 -13.6697,0.32202c-5.10543,-1.91189 -3.7938,-3.53347 -2.54603,-6.3945c0.89681,-2.0563 12.5739,-6.82403 11.26492,-13.59717c-1.30898,-6.77314 -18.49504,-23.8141 -18.49504,-23.8141c0,0 52.44346,-21.75674 74.33316,-2.69123c21.8897,19.06551 37.15531,63.33759 35.23863,98.12617c-0.78326,14.21657 -29.5076,17.86343 -29.63865,18.79436c-0.14504,1.03029 -7.29216,11.98319 -12.82745,12.04144c-5.53529,0.05825 -3.37232,-12.17735 -5.72872,-11.84617c-6.36898,0.89513 -11.72385,1.44715 -17.04095,0.64642c-8.63252,-1.30002 -8.8434,17.31254 -16.57279,15.31235c-7.72939,-2.00019 -11.56135,-17.96384 -6.70588,-24.08517z" fill="#f2ebe5" stroke="#000000" stroke-width="5" stroke-linecap="butt"/><path d="M263.10044,216.52924c-0.88405,0.76039 -7.23116,2.74724 -8.20846,2.84262c-3.94309,0.38484 -8.14639,-3.72345 -8.58533,-4.9045c-0.54358,-1.46259 1.21493,-6.04376 4.81241,-7.72058c1.12434,-0.52407 6.07839,-2.89343 7.54784,-2.66626" fill="none" stroke="#000000" stroke-width="3.5" stroke-linecap="round"/><path d="M225.56304,196.23741c0,0 -3.67172,0.95659 -5.64594,0.85268c-2.17771,-0.11461 -6.86981,-1.5114 -6.86981,-1.5114" fill="none" stroke="#000000" stroke-width="3.5" stroke-linecap="round"/><path d="M263.11028,195.57869c0,0 -3.46006,1.14984 -5.26804,1.14984c-1.91825,0 -5.93026,-1.14984 -5.93026,-1.14984" fill="none" stroke="#000000" stroke-width="3.5" stroke-linecap="round"/><path d="M321.82542,181.65527c0,17.5535 -41.17595,31.78343 -91.96907,31.78343c-50.79311,0 -91.96907,-14.22993 -91.96907,-31.78343c0,-7.58474 25.27003,-53.77105 38.0995,-59.23488c10.68321,-4.54978 34.36071,-7.17312 54.68322,-5.5533c11.75385,0.93685 47.72346,14.95503 58.29352,14.95503c50.79311,0 32.86188,32.27965 32.86188,49.83315z" fill="#d8276f" stroke="#000000" stroke-width="3.5" stroke-linecap="butt"/><path d="M185.74917,150.13815c0,4.85522 -5.14699,8.79116 -11.49613,8.79116c-6.34914,0 -11.49613,-3.93594 -11.49613,-8.79116c0,-4.85522 5.14699,-8.79116 11.49613,-8.79116c6.34914,0 11.49613,3.93594 11.49613,8.79116z" fill="#f6edf0" stroke="#000000" stroke-width="3.5" stroke-linecap="butt"/><path d="M235.85635,191.4177c0,4.85522 -5.14699,8.79116 -11.49613,8.79116c-6.34914,0 -11.49614,-3.93594 -11.49614,-8.79116c0,-4.85523 5.147,-8.79117 11.49614,-8.79117c6.34914,0 11.49613,3.93594 11.49613,8.79117z" fill="#f6edf0" stroke="#000000" stroke-width="3.5" stroke-linecap="butt"/><path d="M286.25857,145.61327c0,4.85522 -5.147,8.79116 -11.49614,8.79116c-6.34914,0 -11.49614,-3.93594 -11.49614,-8.79116c0,-4.85522 5.147,-8.79116 11.49614,-8.79116c6.34914,0 11.49614,3.93594 11.49614,8.79116z" fill="#f6edf0" stroke="#000000" stroke-width="3.5" stroke-linecap="butt"/><path d="M268.30324,-0.2954c4.07063,17.76274 -4.32485,34.84248 -4.32485,34.84248c0,0 -14.99527,-11.71936 -19.0659,-29.4821c-4.07063,-17.76274 -2.13433,-33.36225 4.32485,-34.84248c6.45918,-1.48023 14.99527,11.71936 19.0659,29.4821z" fill="#85ab7c" stroke="#000000" stroke-width="5" stroke-linecap="butt"/><path d="M250.11411,295.34083c0,0 3.21732,-8.42364 7.36637,-12.05406c4.14905,-3.63042 8.70571,-2.00901 8.70571,-2.00901" fill="none" stroke="#000000" stroke-width="5" stroke-linecap="round"/></g></g></svg>