<svg version="1.1" xmlns="http://www.w3.org/2000/svg" xmlns:xlink="http://www.w3.org/1999/xlink" width="497.4955" height="422.52602" viewBox="0,0,497.4955,422.52602"><g transform="translate(8.74775,39.57397)"><g data-paper-data="{&quot;isPaintingLayer&quot;:true}" fill-rule="nonzero" stroke-linejoin="miter" stroke-miterlimit="10" stroke-dasharray="" stroke-dashoffset="0" style="mix-blend-mode: normal"><path d="M-7.74775,381.95205v-403.9039h495.4955v403.9039z" fill="#000000" stroke="#000000" stroke-width="2" stroke-linecap="butt"/><path d="M240.67624,196.90616v-233.98013h81.14918v233.98013z" fill="#a7d69c" stroke="#000000" stroke-width="5" stroke-linecap="butt"/><path d="M237.3983,53.4136v-75.99084h93.98867v75.99084c0,0 -18.61837,13.33246 -31.49268,3.93888c-7.58921,-5.53737 -9.26783,-35.93502 -14.50178,-35.93502c-7.56804,0 0.06369,30.54735 -16.19962,39.67763c-16.26331,9.13028 -31.79459,-7.68149 -31.79459,-7.68149z" fill="#70432e" stroke="#000000" stroke-width="5" stroke-linecap="butt"/><path d="M200.10165,100.87959v-127.13371h51.39448v127.13371z" fill="#85ab7c" stroke="#000000" stroke-width="5" stroke-linecap="butt"/><path d="M305.59558,290.22767v-313.77682c0,0 52.17758,0.12858 52.17758,5.47384c0,30.36805 2.63688,308.30298 2.63688,308.30298z" fill="#b9f7ac" stroke="#000000" stroke-width="5" stroke-linecap="butt"/><path d="M126.38643,176.61883l-5.27375,-203.00914l80.34146,-5.27375v208.28289z" fill="#6f5852" stroke="none" stroke-width="0" stroke-linecap="butt"/><path d="M312.35802,205.69732c0,11.74502 14.25093,-0.75924 14.60355,8.4923c0.27019,7.08898 16.47283,9.71102 22.6971,21.59272c7.36676,14.06263 4.55037,37.30166 -1.08004,42.14745c-13.60941,11.71291 -69.71963,12.29792 -111.2836,12.29792c-92.24926,0 -114.29452,-0.17761 -114.29452,-57.31986c0,-32.99426 0.7822,-47.30034 0.15705,-67.6342c-0.29414,-9.56734 0.69054,-34.39816 1.35244,-46.35841c0.34184,-6.17694 -1.00987,-25.74032 -1.96519,-47.41883c-0.42465,-9.6362 -2.06262,-19.17009 2.22149,-19.17009c0.89555,0 4.5178,14.68048 25.20803,25.58483c26.74997,14.09801 25.56663,-8.30864 56.90846,8.05534c18.37559,9.59413 -2.53934,37.10809 19.37388,59.08484c9.2063,9.23299 30.33356,0.15115 46.90327,6.08216c16.07776,5.75492 12.56425,30.97081 23.67499,39.435c10.28441,7.83468 15.52309,11.16478 15.52309,15.12883z" fill="#42a62a" stroke="#000000" stroke-width="3.5" stroke-linecap="butt"/><path d="M123.63364,362.71642v-93.09309c0,0 15.16924,-5.55801 28.50165,-31.49536c0.30906,-0.60125 -0.23655,15.93789 -0.23655,15.93789l16.09743,-6.8445c0,0 1.92294,22.40198 13.78181,22.40198c33.29319,0 77.574,0 113.01277,0c19.54677,0 12.04234,-22.23202 12.04234,-22.23202c0,0 3.7352,16.22191 10.708,9.85038c2.81042,-2.56808 10.2939,-17.90037 10.2939,-17.90037c0,0 2.4852,9.25501 8.15761,14.10545c4.71795,4.03429 17.52858,-13.36101 17.52858,-13.36101c0,0 -8.87696,18.00281 -6.50113,24.71273c3.1321,8.84584 7.84482,4.82483 7.84482,4.82483v93.09309z" fill="#87c47e" stroke="#000000" stroke-width="5" stroke-linecap="butt"/><path d="M140.09294,268.4013l-6.48434,-16.67401" fill="none" stroke="#b8ecb0" stroke-width="5" stroke-linecap="round"/><path d="M134.53493,269.32759l-9.26334,-20.37935" fill="none" stroke="#b8ecb0" stroke-width="5" stroke-linecap="round"/><path d="M127.96365,348.13536l1.85267,-10.18968" fill="none" stroke="#b8ecb0" stroke-width="10" stroke-linecap="round"/><path d="M134.10727,358.32504l1.85267,-8.33701" fill="none" stroke="#b8ecb0" stroke-width="10" stroke-linecap="round"/><path d="M290.65774,320.34524l4.63167,12.96868" fill="none" stroke="#b8ecb0" stroke-width="5" stroke-linecap="round"/><path d="M296.21575,311.08193l9.26334,20.37935" fill="none" stroke="#b8ecb0" stroke-width="5" stroke-linecap="round"/><path d="M123.63363,380.45057v-403.9039h232.73273v403.9039z" fill="none" stroke="#ffffff" stroke-width="2" stroke-linecap="butt"/><path d="M211.04946,215.66517c0.27434,0.54784 3.87461,5.72691 6.01833,9.59125c2.14372,3.86434 6.21213,6.65491 5.82933,11.76573c-0.38281,5.11082 -3.25557,8.58434 -7.25137,7.2203c-3.9958,-1.36404 -3.73651,-9.31959 -4.84295,-11.34894c-2.71677,-4.98293 -8.46603,-8.39036 -8.16369,-9.10655" fill="none" stroke="#000000" stroke-width="3.5" stroke-linecap="round"/><path d="M321.82542,153.21282c0,4.89733 1.96252,12.04515 -2.0786,12.59645c-10.44345,1.42473 -38.26836,-12.81302 -74.89047,-12.81302c-35.72413,0 -63.48187,22.88357 -77.40093,23.23422c-5.87127,0.14791 -10.10233,-13.57828 -10.10233,-18.78595c0,-5.0027 8.25371,-19.39132 21.71857,-30.62171c6.94963,-5.79635 32.74118,-42.05778 61.58697,-42.05778c50.79311,0 81.16679,50.89429 81.16679,68.44779z" data-paper-data="{&quot;index&quot;:null}" fill="#d8276f" stroke="#000000" stroke-width="3.5" stroke-linecap="butt"/><path d="M304.18772,119.06454c-3.17413,3.67397 -9.64203,3.28745 -14.44646,-0.86334c-4.80443,-4.15079 -6.12604,-10.49401 -2.95192,-14.16798c3.17413,-3.67397 20.5725,11.35735 17.39837,15.03132z" fill="#f6edf0" stroke="#000000" stroke-width="3.5" stroke-linecap="butt"/><path d="M206.62125,105.26966c3.3536,3.51091 2.35034,9.91221 -2.24086,14.29769c-4.5912,4.38548 -11.03174,5.09446 -14.38534,1.58355c-3.35361,-3.51092 13.27259,-19.39216 16.6262,-15.88124z" fill="#f6edf0" stroke="#000000" stroke-width="3.5" stroke-linecap="butt"/><path d="M268.30324,-0.29537c4.07063,17.76274 -4.32485,34.84248 -4.32485,34.84248c0,0 -14.99527,-11.71936 -19.0659,-29.4821c-4.07063,-17.76274 -2.13433,-33.36225 4.32485,-34.84248c6.45918,-1.48023 14.99527,11.71936 19.0659,29.4821z" fill="#85ab7c" stroke="#000000" stroke-width="5" stroke-linecap="butt"/><path d="M237.19156,274.2718c4.413,-2.37923 10.97046,1.78038 11.28199,5.05141c0.22102,2.32077 0.56676,5.951 0.56676,5.951" fill="none" stroke="#000000" stroke-width="5" stroke-linecap="round"/><path d="M254.13198,88.37367c0.42854,4.83627 -4.35096,9.21114 -10.67532,9.77155c-6.32436,0.56041 -11.79867,-2.90588 -12.22721,-7.74215c-0.42854,-4.83627 22.47399,-6.86567 22.90253,-2.0294z" fill="#f6edf0" stroke="#000000" stroke-width="3.5" stroke-linecap="butt"/><path d="M320.5,162.50001c0,12.97869 -39.13093,35.5 -80,35.5c-40.86907,0 -80,-18.52131 -80,-31.5c0,-5.9385 8.19243,-9.68766 20.99527,-12.00769c15.17797,-2.75043 36.83563,-3.49231 59.00473,-3.49231c28.98507,0 80,7.72602 80,11.5z" fill="#dbcbbb" stroke="#000000" stroke-width="5" stroke-linecap="butt"/><path d="M219.46404,304.138c-4.26241,0.36482 -9.57235,13.81865 -12.40151,16.84403c-2.0099,2.14931 -7.92301,2.57844 -8.23718,2.5127c-7.24213,-1.51538 2.26552,-15.87336 -5.78821,-22.42728c-10.0221,-8.15573 -7.20909,-35.87162 -7.66411,-40.11761c-2.46927,-23.04193 -8.85847,-70.69374 15.24812,-84.83877c24.10659,-14.14503 52.82122,-14.26561 78.17732,-0.51309c2.56973,1.39375 3.12534,9.67425 2.03621,23.93607c-0.01892,0.24776 4.37309,-1.60218 7.58802,2.69877c4.99525,6.68268 9.61588,20.81367 9.4773,23.60476c-0.22751,4.58232 -15.98801,-10.23831 -17.69188,-10.45103c-4.46704,-0.55768 -1.39638,-0.24461 -1.56192,-0.77766c-4.55439,-14.66569 -11.00829,25.57778 -11.04041,26.40925c-0.37129,9.6116 1.96457,20.4745 1.09276,29.01816c-0.07583,0.74307 13.37079,25.35477 6.14197,39.20294c-7.22882,13.84817 -13.48671,-13.08517 -19.12477,-14.33192c-13.37905,-2.95853 -28.25119,8.54591 -36.25171,9.23069z" data-paper-data="{&quot;index&quot;:null}" fill="#f2ebe5" stroke="#000000" stroke-width="5" stroke-linecap="butt"/><path d="M178.5,167.00003l13,6" fill="none" stroke="#ab9d83" stroke-width="2" stroke-linecap="round"/><path d="M289.5,176.00003l17,-5" fill="none" stroke="#ab9d83" stroke-width="2" stroke-linecap="round"/><path d="M224.64039,187.95205c0,0 -3.15737,2.75 -4.875,2.75c-1.92529,0 -6.125,-2.75 -6.125,-2.75" fill="none" stroke="#000000" stroke-width="3.5" stroke-linecap="round"/><path d="M260.51539,193.45205c-2.95755,0 -8.59775,-1.036 -11.875,-6.75" fill="none" stroke="#000000" stroke-width="3.5" stroke-linecap="round"/><path d="M234.14039,200.20205c0.78683,-0.86965 7.71543,-1.42727 9.5,0.5" fill="none" stroke="#000000" stroke-width="2" stroke-linecap="round"/><path d="M216.39039,224.20205c-1.49628,-0.12132 7.72449,12.9321 6.74061,17.87231c-0.4481,2.24998 -1.85351,2.75048 -3.68118,2.34063c-7.2116,-1.61719 -17.54882,-13.26041 -17.30943,-16.21294" fill="none" stroke="#000000" stroke-width="3.5" stroke-linecap="round"/><path d="M252.53819,272.18765c0.22887,-0.02774 6.27389,-1.92322 8.9112,-2.17568c3.25394,-0.3115 5.91123,1.11885 7.17181,2.51657c3.0893,3.42539 4.4366,8.59745 4.4366,8.59745" fill="none" stroke="#000000" stroke-width="5" stroke-linecap="round"/></g></g></svg>