<svg version="1.1" xmlns="http://www.w3.org/2000/svg" xmlns:xlink="http://www.w3.org/1999/xlink" width="497.4955" height="422.52602" viewBox="0,0,497.4955,422.52602"><g transform="translate(8.74775,39.57397)"><g data-paper-data="{&quot;isPaintingLayer&quot;:true}" fill-rule="nonzero" stroke-linejoin="miter" stroke-miterlimit="10" stroke-dasharray="" stroke-dashoffset="0" style="mix-blend-mode: normal"><path d="M-7.74775,381.95205v-403.9039h495.4955v403.9039z" fill="#000000" stroke="#000000" stroke-width="2" stroke-linecap="butt"/><path d="M240.67624,196.90616v-233.98013h81.14918v233.98013z" fill="#a7d69c" stroke="#000000" stroke-width="5" stroke-linecap="butt"/><path d="M237.3983,53.4136v-75.99084h93.98867v75.99084c0,0 -18.61837,13.33246 -31.49268,3.93888c-7.58921,-5.53737 -9.26783,-35.93502 -14.50178,-35.93502c-7.56804,0 0.06369,30.54735 -16.19962,39.67763c-16.26331,9.13028 -31.79459,-7.68149 -31.79459,-7.68149z" fill="#70432e" stroke="#000000" stroke-width="5" stroke-linecap="butt"/><path d="M200.10165,100.87959v-127.13371h51.39448v127.13371z" fill="#85ab7c" stroke="#000000" stroke-width="5" stroke-linecap="butt"/><path d="M305.59558,290.22767v-313.77682c0,0 52.17758,0.12858 52.17758,5.47384c0,30.36805 2.63688,308.30298 2.63688,308.30298z" fill="#b9f7ac" stroke="#000000" stroke-width="5" stroke-linecap="butt"/><path d="M126.38643,176.61883l-5.27375,-203.00914l80.34146,-5.27375v208.28289z" fill="#6f5852" stroke="none" stroke-width="0" stroke-linecap="butt"/><path d="M312.35802,205.69732c0,11.74502 14.25093,-0.75924 14.60355,8.4923c0.27019,7.08898 16.47283,9.71102 22.6971,21.59272c7.36676,14.06263 4.55037,37.30166 -1.08004,42.14745c-13.60941,11.71291 -69.71963,12.29792 -111.2836,12.29792c-92.24926,0 -114.29452,-0.17761 -114.29452,-57.31986c0,-32.99426 0.7822,-47.30034 0.15705,-67.6342c-0.29414,-9.56734 0.69054,-34.39816 1.35244,-46.35841c0.34184,-6.17694 -1.00987,-25.74032 -1.96519,-47.41883c-0.42465,-9.6362 -2.06262,-19.17009 2.22149,-19.17009c0.89555,0 4.5178,14.68048 25.20803,25.58483c26.74997,14.09801 25.56663,-8.30864 56.90846,8.05534c18.37559,9.59413 -2.53934,37.10809 19.37388,59.08484c9.2063,9.23299 30.33356,0.15115 46.90327,6.08216c16.07776,5.75492 12.56425,30.97081 23.67499,39.435c10.28441,7.83468 15.52309,11.16478 15.52309,15.12883z" fill="#42a62a" stroke="#000000" stroke-width="3.5" stroke-linecap="butt"/><path d="M123.63364,362.71642v-93.09309c0,0 15.16924,-5.55801 28.50165,-31.49536c0.30906,-0.60125 -0.23655,15.93789 -0.23655,15.93789l16.09743,-6.8445c0,0 1.92294,22.40198 13.78181,22.40198c33.29319,0 77.574,0 113.01277,0c19.54677,0 12.04234,-22.23202 12.04234,-22.23202c0,0 3.7352,16.22191 10.708,9.85038c2.81042,-2.56808 10.2939,-17.90037 10.2939,-17.90037c0,0 2.4852,9.25501 8.15761,14.10545c4.71795,4.03429 17.52858,-13.36101 17.52858,-13.36101c0,0 -8.87696,18.00281 -6.50113,24.71273c3.1321,8.84584 7.84482,4.82483 7.84482,4.82483v93.09309z" fill="#87c47e" stroke="#000000" stroke-width="5" stroke-linecap="butt"/><path d="M133.6086,251.72727l6.48434,16.67401" fill="none" stroke="#b8ecb0" stroke-width="5" stroke-linecap="round"/><path d="M134.53493,269.32759l-9.26334,-20.37935" fill="none" stroke="#b8ecb0" stroke-width="5" stroke-linecap="round"/><path d="M127.96365,348.13536l1.85267,-10.18968" fill="none" stroke="#b8ecb0" stroke-width="10" stroke-linecap="round"/><path d="M134.10727,358.32503l1.85267,-8.33701" fill="none" stroke="#b8ecb0" stroke-width="10" stroke-linecap="round"/><path d="M290.65774,320.34524l4.63167,12.96868" fill="none" stroke="#b8ecb0" stroke-width="5" stroke-linecap="round"/><path d="M296.21575,311.08191l9.26334,20.37935" fill="none" stroke="#b8ecb0" stroke-width="5" stroke-linecap="round"/><path d="M123.63363,380.45057v-403.9039h232.73273v403.9039z" fill="none" stroke="#ffffff" stroke-width="2" stroke-linecap="butt"/><path d="M302.99143,172.51809c-1.85081,12.84605 -43.29962,6.27292 -83.751,0.44484c-16.91618,-2.43722 -42.54544,-2.79066 -55.53972,-7.44515c-18.07873,-6.47573 -28.01744,-23.35973 -28.01744,-23.35973c0,0 63.37061,6.28131 74.37977,7.86747c28.68884,4.13338 93.46659,18.75716 92.9284,22.49257z" fill="#dbcbbb" stroke="#000000" stroke-width="5" stroke-linecap="butt"/><path d="M225.3844,317.24105c-10.0221,-8.15573 -23.88814,-46.99099 -24.34316,-51.23698c-0.51878,-4.84093 -13.02418,-40.23225 -13.02418,-40.23225c0,0 -2.23312,11.45103 -6.58317,10.73469c-2.94373,-0.48476 -3.73163,-12.30606 -4.04174,-14.9225c-2.7319,-23.04951 -0.12778,-45.24728 14.73416,-53.96782c11.62201,-6.81945 17.79466,-13.36008 32.71115,-11.632c16.02358,1.85634 25.96334,8.24405 39.09502,15.36635c0.51673,0.28026 -3.6797,28.12349 -2.48967,52.25135c0.51633,10.46864 11.95846,26.14266 11.0879,47.87636c-0.20823,5.19835 -6.90697,11.53202 -9.33699,18.34423c-3.26677,9.15787 -2.49093,18.36457 -2.73333,19.09088c-0.56666,1.69786 -3.60509,4.79878 -5.76979,3.21949c-6.15508,-4.49055 -10.42909,-21.75392 -19.77975,-21.89436c-7.62488,-0.11451 -9.74455,-3.90944 -13.33224,-5.84243c-5.85438,-3.15425 15.56822,26.79201 10.53717,30.5941c-6.115,4.62126 -5.13374,3.551 -6.73136,2.25089z" data-paper-data="{&quot;index&quot;:null}" fill="#f2ebe5" stroke="#000000" stroke-width="5" stroke-linecap="butt"/><path d="M268.30324,-0.29537c4.07063,17.76274 -4.32485,34.84248 -4.32485,34.84248c0,0 -14.99527,-11.71936 -19.0659,-29.4821c-4.07063,-17.76274 -2.13433,-33.36225 4.32485,-34.84248c6.45918,-1.48023 14.99527,11.71936 19.0659,29.4821z" fill="#85ab7c" stroke="#000000" stroke-width="5" stroke-linecap="butt"/><path d="M308.02783,167.15474c-2.95504,11.84192 -27.93369,2.63944 -36.05876,2.11219c-19.018,-1.23412 -32.2855,-4.58466 -57.77123,-7.56643c-35.4821,-4.15133 -48.68681,2.39076 -74.35489,-12.2962c-25.66807,-14.68696 10.45117,-18.30083 25.12984,-27.89044c7.57611,-4.9495 34.90882,-26.59176 63.55919,-23.23973c5.61088,0.65646 11.07915,1.52959 16.35352,2.6175c42.14894,8.69373 71.91617,31.1031 63.14234,66.26312z" data-paper-data="{&quot;index&quot;:null}" fill="#d8276f" stroke="#000000" stroke-width="3.5" stroke-linecap="butt"/><path d="M186.31244,185.28879c0,0 -4.19971,2.75 -6.125,2.75" data-paper-data="{&quot;index&quot;:null}" fill="none" stroke="#000000" stroke-width="3.5" stroke-linecap="round"/><path d="M217.9361,188.14559c-2.68857,1.23236 -8.24749,2.64073 -13.60759,-1.18803" fill="none" stroke="#000000" stroke-width="3.5" stroke-linecap="round"/><path d="M186.07463,203.54389c1.78457,-1.92727 8.71317,-1.36965 9.5,-0.5" data-paper-data="{&quot;index&quot;:null}" fill="none" stroke="#000000" stroke-width="2" stroke-linecap="round"/><path d="M268.35336,129.08019c0,4.13656 -3.91224,7.48991 -8.73822,7.48991c-4.82599,0 -8.73822,-3.35335 -8.73822,-7.48991c0,-4.13656 3.91224,-7.4899 8.73822,-7.4899c4.82599,0 8.73823,3.35334 8.73823,7.4899z" fill="#f6edf0" stroke="#000000" stroke-width="3.5" stroke-linecap="butt"/><path d="M187.90879,108.68849c1.34727,2.56307 -0.15415,10.34334 -3.93772,12.33217c-3.78357,1.98883 -10.71999,-0.34957 -12.06726,-2.91264c-1.34727,-2.56307 14.6577,-11.9826 16.00498,-9.41953z" fill="#f6edf0" stroke="#000000" stroke-width="3.5" stroke-linecap="butt"/><path d="M184.78024,131.92896c0,-1.38071 1.11929,-2.5 2.5,-2.5c1.38071,0 2.5,1.11929 2.5,2.5c0,1.38071 -1.11929,2.5 -2.5,2.5c-1.38071,0 -2.5,-1.11929 -2.5,-2.5z" fill="#d8276f" stroke="none" stroke-width="0.5" stroke-linecap="butt"/><path d="M236.43662,101.3881c-0.12144,3.77939 -4.12315,4.21998 -9.06545,4.06117c-4.9423,-0.15881 -8.95362,-0.85686 -8.83218,-4.63625c0.05793,-1.80296 4.1613,-2.11561 8.42399,-2.06148c4.67284,0.05933 9.53714,0.66013 9.47364,2.63657z" fill="#f6edf0" stroke="#000000" stroke-width="3.5" stroke-linecap="butt"/><path d="M228.65749,214.61921c0,0 0.74934,3.40926 0.77997,7.19251c0.02555,3.15438 -4.05354,2.48865 -5.49426,2.13812c-2.74875,-0.66877 -7.53065,-10.96957 -7.53065,-10.96957" fill="none" stroke="#000000" stroke-width="3.5" stroke-linecap="round"/></g></g></svg>