<svg version="1.1" xmlns="http://www.w3.org/2000/svg" xmlns:xlink="http://www.w3.org/1999/xlink" width="497.4955" height="422.52604" viewBox="0,0,497.4955,422.52604"><g transform="translate(8.74775,39.57405)"><g data-paper-data="{&quot;isPaintingLayer&quot;:true}" fill-rule="nonzero" stroke-linejoin="miter" stroke-miterlimit="10" stroke-dasharray="" stroke-dashoffset="0" style="mix-blend-mode: normal"><path d="M-7.74775,381.95199v-403.9039h495.4955v403.9039z" fill="#000000" stroke="#000000" stroke-width="2" stroke-linecap="butt"/><path d="M240.67624,196.90608v-233.98013h81.14918v233.98013z" fill="#a7d69c" stroke="#000000" stroke-width="5" stroke-linecap="butt"/><path d="M237.3983,53.41354v-75.99084h93.98867v75.99084c0,0 -18.61837,13.33246 -31.49268,3.93888c-7.58921,-5.53737 -9.26783,-35.93502 -14.50178,-35.93502c-7.56804,0 0.06369,30.54735 -16.19962,39.67763c-16.26331,9.13028 -31.79459,-7.68149 -31.79459,-7.68149z" fill="#70432e" stroke="#000000" stroke-width="5" stroke-linecap="butt"/><path d="M200.10165,100.87955v-127.13371h51.39448v127.13371z" fill="#85ab7c" stroke="#000000" stroke-width="5" stroke-linecap="butt"/><path d="M305.59558,290.22763v-313.77682c0,0 52.17758,0.12858 52.17758,5.47384c0,30.36805 2.63688,308.30298 2.63688,308.30298z" fill="#b9f7ac" stroke="#000000" stroke-width="5" stroke-linecap="butt"/><path d="M126.38643,176.61878l-5.27375,-203.00914l80.34146,-5.27375v208.28289z" fill="#6f5852" stroke="none" stroke-width="0" stroke-linecap="butt"/><path d="M312.35802,205.69724c0,11.74502 14.25093,-0.75924 14.60355,8.4923c0.27019,7.08898 16.47283,9.71102 22.6971,21.59272c7.36676,14.06263 4.55037,37.30166 -1.08004,42.14745c-13.60941,11.71291 -69.71963,12.29792 -111.2836,12.29792c-92.24926,0 -114.29452,-0.17761 -114.29452,-57.31986c0,-32.99426 0.7822,-47.30034 0.15705,-67.6342c-0.29414,-9.56734 0.69054,-34.39816 1.35244,-46.35841c0.34184,-6.17694 -1.00987,-25.74032 -1.96519,-47.41883c-0.42465,-9.6362 -2.06262,-19.17009 2.22149,-19.17009c0.89555,0 4.5178,14.68048 25.20803,25.58483c26.74997,14.09801 25.56663,-8.30864 56.90846,8.05534c18.37559,9.59413 -2.53934,37.10809 19.37388,59.08484c9.2063,9.23299 30.33356,0.15115 46.90327,6.08216c16.07776,5.75492 12.56425,30.97081 23.67499,39.435c10.28441,7.83468 15.52309,11.16478 15.52309,15.12883z" fill="#42a62a" stroke="#000000" stroke-width="3.5" stroke-linecap="butt"/><path d="M123.63364,362.71634v-93.09309c0,0 15.16924,-5.55801 28.50165,-31.49536c0.30906,-0.60125 -0.23655,15.93789 -0.23655,15.93789l16.09743,-6.8445c0,0 1.92294,22.40198 13.78181,22.40198c33.29319,0 77.574,0 113.01277,0c19.54677,0 12.04234,-22.23202 12.04234,-22.23202c0,0 3.7352,16.22191 10.708,9.85038c2.81042,-2.56808 10.2939,-17.90037 10.2939,-17.90037c0,0 2.4852,9.25501 8.15761,14.10545c4.71795,4.03429 17.52858,-13.36101 17.52858,-13.36101c0,0 -8.87696,18.00281 -6.50113,24.71273c3.1321,8.84584 7.84482,4.82483 7.84482,4.82483v93.09309z" fill="#87c47e" stroke="#000000" stroke-width="5" stroke-linecap="butt"/><path d="M140.09294,268.40124l-6.48434,-16.67401" fill="none" stroke="#b8ecb0" stroke-width="5" stroke-linecap="round"/><path d="M134.53493,269.32755l-9.26334,-20.37935" fill="none" stroke="#b8ecb0" stroke-width="5" stroke-linecap="round"/><path d="M127.96365,348.13528l1.85267,-10.18968" fill="none" stroke="#b8ecb0" stroke-width="10" stroke-linecap="round"/><path d="M135.95994,349.98795l-1.85267,8.33701" fill="none" stroke="#b8ecb0" stroke-width="10" stroke-linecap="round"/><path d="M290.65774,320.34522l4.63167,12.96868" fill="none" stroke="#b8ecb0" stroke-width="5" stroke-linecap="round"/><path d="M296.21575,311.08189l9.26334,20.37935" fill="none" stroke="#b8ecb0" stroke-width="5" stroke-linecap="round"/><path d="M123.63363,380.45049v-403.9039h232.73273v403.9039z" fill="none" stroke="#ffffff" stroke-width="2" stroke-linecap="butt"/><path d="M194.75067,304.19014c-7.72939,-2.00019 -3.16419,-11.48814 -0.81946,-15.99037c1.93393,-3.71342 16.94177,-5.27932 16.94177,-9.13611c0,-3.78705 -5.55522,-9.65199 -6.14625,-16.56757c-0.87181,-10.20102 3.7403,-14.62695 3.36901,-26.10307c-0.15503,-4.79171 0.35551,-10.7439 -5.45166,-14.28694c-5.47126,-3.33809 -11.41476,-1.83529 -15.64781,-8.29594c-4.23305,-6.46066 -0.25927,-8.72148 1.44161,-10.38629c3.14597,-3.07925 12.85259,2.18784 14.87212,-0.76852c3.1188,-4.56555 -14.89309,-20.81247 -14.89309,-20.81247l86.38722,-4.03057c0,0 15.71739,46.32291 13.24812,73.83467c-1.38998,15.48671 -9.61385,32.66391 -10.32682,37.7285c-0.60874,4.32419 -5.22448,3.29876 -5.22448,3.29876c0,0 1.47595,16.13663 -4.21143,16.23034c-8.55018,0.14088 -13.36707,-13.35793 -18.49565,-12.63713c-6.36898,0.89513 -11.72385,1.44715 -17.04095,0.64642c-8.63252,-1.30002 -16.74504,-4.59128 -21.41412,-4.20937c-5.99115,0.49005 -8.85873,13.48587 -16.58812,11.48568z" fill="#f2ebe5" stroke="#000000" stroke-width="5" stroke-linecap="butt"/><path d="M257.9279,226.60284c-1.15914,-0.12702 -6.94364,-3.40922 -7.68045,-4.05832c-2.97279,-2.6189 -2.83964,-8.49495 -2.27616,-9.62191c0.69781,-1.39561 5.24605,-3.2376 8.9271,-1.75318c1.15045,0.46393 6.2636,2.46699 7.10063,3.69593" fill="none" stroke="#000000" stroke-width="3.5" stroke-linecap="round"/><path d="M225.56304,196.23739c0,0 -3.67172,0.95659 -5.64594,0.85268c-2.17771,-0.11461 -6.86981,-1.5114 -6.86981,-1.5114" fill="none" stroke="#000000" stroke-width="3.5" stroke-linecap="round"/><path d="M263.11028,195.57867c0,0 -3.46006,1.14984 -5.26804,1.14984c-1.91825,0 -5.93026,-1.14984 -5.93026,-1.14984" fill="none" stroke="#000000" stroke-width="3.5" stroke-linecap="round"/><path d="M321.82542,155.65525c0,17.5535 -41.17595,31.78343 -91.96907,31.78343c-50.79311,0 -91.96907,-14.22993 -91.96907,-31.78343c0,-7.58474 25.27003,-53.77105 38.0995,-59.23488c16.86202,-7.18122 56.13096,0.40173 84.97675,0.40173c50.79311,0 60.86188,41.27965 60.86188,58.83315z" fill="#d8276f" stroke="#000000" stroke-width="3.5" stroke-linecap="butt"/><path d="M198.74917,119.13813c0,4.85522 -5.14699,8.79116 -11.49613,8.79116c-6.34914,0 -11.49613,-3.93594 -11.49613,-8.79116c0,-4.85522 5.14699,-8.79116 11.49613,-8.79116c6.34914,0 11.49613,3.93594 11.49613,8.79116z" fill="#f6edf0" stroke="#000000" stroke-width="3.5" stroke-linecap="butt"/><path d="M234.85635,167.41768c0,4.85522 -5.14699,8.79116 -11.49613,8.79116c-6.34914,0 -11.49614,-3.93594 -11.49614,-8.79116c0,-4.85523 5.147,-8.79117 11.49614,-8.79117c6.34914,0 11.49613,3.93594 11.49613,8.79117z" fill="#f6edf0" stroke="#000000" stroke-width="3.5" stroke-linecap="butt"/><path d="M268.25857,115.61326c0,4.85522 -5.147,8.79116 -11.49614,8.79116c-6.34914,0 -11.49614,-3.93594 -11.49614,-8.79116c0,-4.85522 5.147,-8.79116 11.49614,-8.79116c6.34914,0 11.49614,3.93594 11.49614,8.79116z" fill="#f6edf0" stroke="#000000" stroke-width="3.5" stroke-linecap="butt"/><path d="M268.30324,-0.29541c4.07063,17.76274 -4.32485,34.84248 -4.32485,34.84248c0,0 -14.99527,-11.71936 -19.0659,-29.4821c-4.07063,-17.76274 -2.13433,-33.36225 4.32485,-34.84248c6.45918,-1.48023 14.99527,11.71936 19.0659,29.4821z" fill="#85ab7c" stroke="#000000" stroke-width="5" stroke-linecap="butt"/></g></g></svg>